<?xml version="1.0" encoding="UTF-8"?>
<svg width="13px" height="12px" viewBox="0 0 13 12" version="1.1" xmlns="http://www.w3.org/2000/svg" xmlns:xlink="http://www.w3.org/1999/xlink">
    <!-- Generator: Sketch 57.1 (83088) - https://sketch.com -->
    <title>dribbble_light</title>
    <desc>Created with Sketch.</desc>
    <g id="mobile" stroke="none" stroke-width="1" fill="none" fill-rule="evenodd">
        <g id="work" transform="translate(-243.000000, -850.000000)" fill="#F1F4FA" fill-rule="nonzero">
            <g id="Footer" transform="translate(29.000000, 850.000000)">
                <g id="social_media">
                    <path d="M220.413661,0 C217.105224,0 214.413661,2.6915625 214.413661,6 C214.413661,9.3084375 217.105224,12 220.413661,12 C223.722099,12 226.413661,9.3084375 226.413661,6 C226.413661,2.6915625 223.722099,0 220.413661,0 Z M225.663661,6.00075 C224.206786,5.6210625 222.935349,5.6056875 221.838286,5.814 C221.677974,5.4448125 221.513161,5.0885625 221.346099,4.749 C222.497536,4.2860625 223.588036,3.6045 224.428224,2.623125 C225.197911,3.5368125 225.663661,4.7146875 225.663661,6 C225.663661,6.000375 225.663661,6.000375 225.663661,6.00075 Z M223.905474,2.09025 C223.136349,3.008625 222.098911,3.637875 220.999224,4.0681875 C220.227661,2.605875 219.474286,1.5058125 219.057286,0.934125 C219.490786,0.8176875 219.944161,0.75 220.413661,0.75 C221.755036,0.75 222.976411,1.2598125 223.905474,2.09025 L223.905474,2.09025 Z M218.313099,1.1919375 C218.651536,1.6471875 219.447661,2.7706875 220.274911,4.32225 C218.225911,4.9605 216.128349,4.994625 215.265849,4.975125 C215.603536,3.2761875 216.763974,1.87125 218.313099,1.1919375 Z M215.163661,6 C215.163661,5.907375 215.173224,5.8171875 215.177536,5.7256875 C215.317786,5.730375 215.491036,5.734125 215.694661,5.734125 C216.790411,5.734125 218.726161,5.6265 220.627224,5.0079375 C220.783974,5.3240625 220.939224,5.653875 221.091286,5.996625 C218.570349,6.7550625 217.110661,8.67 216.555849,9.5480625 C215.694661,8.612625 215.163661,7.3685625 215.163661,6 Z M217.105974,10.0719375 C217.516224,9.358125 218.854974,7.375125 221.378536,6.67275 C221.887974,7.926 222.324849,9.3189375 222.568411,10.782375 C221.909911,11.080125 221.182036,11.25 220.413661,11.25 C219.160411,11.25 218.009911,10.8073125 217.105974,10.0719375 L217.105974,10.0719375 Z M223.265349,10.4019375 C223.013724,9.0148125 222.603661,7.7008125 222.129661,6.5109375 C223.125099,6.3530625 224.278599,6.3976875 225.602161,6.7610625 C225.379411,8.2845 224.504161,9.596625 223.265349,10.4019375 Z" id="dribbble_light"></path>
                </g>
            </g>
        </g>
    </g>
</svg>