<?xml version="1.0" encoding="utf-8"?>
<!-- Generator: Adobe Illustrator 24.1.1, SVG Export Plug-In . SVG Version: 6.00 Build 0)  -->
<svg version="1.1" id="Layer_1" xmlns="http://www.w3.org/2000/svg" xmlns:xlink="http://www.w3.org/1999/xlink" x="0px" y="0px"
	 viewBox="0 0 263 76" style="enable-background:new 0 0 263 76;" xml:space="preserve">
<style type="text/css">
	.st0{fill:#15233F;}
	.st1{fill:#F70F1C;}
	.st2{fill:#42C3FA;}
	.st3{fill:#EAEAEA;}
</style>
<path id="Path_1" class="st0" d="M61.15-356.78l-15.13-22.7c-1.39-2.16-3.79-3.46-6.36-3.46h-213.77c-2.94,0-5.61,1.7-6.86,4.37
	l-15.96,34.22c-1.09,2.34-0.91,5.08,0.48,7.26l7.57,11.35l0,0l0,0l7.56,11.35l0,0c1.39,2.18,3.8,3.5,6.38,3.5H39.33
	c2.97,0,5.67-1.74,6.9-4.45l15.47-34.22C62.75-351.91,62.54-354.63,61.15-356.78z M31.09-338.04l4.98-11.02l9.93-3.05l-10.79,23.87
	c-0.61,1.35-1.96,2.22-3.45,2.23h-202.39l6.96-7.57H24.2C27.17-333.59,29.87-335.33,31.09-338.04L31.09-338.04z M58.24-351.12
	L42.78-316.9c-0.61,1.35-1.96,2.22-3.45,2.23h-214.27c-1.29,0-2.5-0.66-3.19-1.75c-0.19-0.3-0.34-0.62-0.44-0.96l4.46-4.85H31.76
	c2.97,0,5.67-1.74,6.9-4.45l12.16-26.91l6.4-1.97C58.53-354.49,58.94-352.67,58.24-351.12L58.24-351.12z"/>
<path id="Path_2" class="st1" d="M-177.67-315.84c0.75,0.76,1.78,1.18,2.85,1.17H39.33c1.49,0,2.83-0.87,3.45-2.23l15.47-34.23
	c0.64-1.41,0.35-3.07-0.73-4.19c-0.76-0.76-1.79-1.17-2.86-1.15l0,0c-1.55,0-2.96,0.91-3.6,2.32l-12.41,27.45
	c-1.22,2.71-3.92,4.45-6.9,4.45h-206.7c-1.47,0-2.81,0.85-3.43,2.19l0,0C-179.03-318.64-178.75-316.97-177.67-315.84z"/>
<path id="Path_3" class="st2" d="M50.16-366.42c-0.77-0.91-1.9-1.42-3.09-1.39c-1.59,0.05-3.01,1.01-3.64,2.47l-12.34,27.3
	c-1.22,2.71-3.92,4.45-6.9,4.45h-206.7c-1.47,0-2.81,0.85-3.43,2.18l0,0c-0.61,1.3-0.43,2.83,0.46,3.95
	c0.77,0.93,1.92,1.46,3.12,1.43H31.74c1.51,0,2.87-0.88,3.49-2.25l15.45-34.19C51.27-363.78,51.07-365.31,50.16-366.42z"/>
<g id="Group_1" transform="translate(14.247 11.382)">
	<path id="Path_4" class="st3" d="M9.47-361.92l-2.23,4.7h-20.59l11.99-25.29h20.1l-2.23,4.7H2.53l-2.6,5.49h12.35l-2.16,4.55H-2.23
		l-2.78,5.85L9.47-361.92z"/>
	<path id="Path_5" class="st3" d="M-3.56-382.51l-23.5,25.29h-6.08l0.52-25.29h6.65l-0.47,18.06l16.77-18.06H-3.56z"/>
	<path id="Path_6" class="st3" d="M-66.3-358.49c-1.63-1.05-2.72-2.76-2.99-4.68c-0.25-2.31,0.2-4.65,1.3-6.7
		c1.23-2.55,2.94-4.82,5.06-6.7c2.18-1.98,4.69-3.56,7.42-4.68c2.62-1.11,5.43-1.68,8.27-1.7c2.33-0.11,4.65,0.48,6.64,1.7
		c1.62,1.06,2.71,2.76,2.99,4.68c0.27,2.31-0.18,4.65-1.28,6.7c-1.23,2.55-2.95,4.83-5.08,6.7c-2.19,1.97-4.7,3.56-7.42,4.68
		c-2.61,1.11-5.42,1.68-8.25,1.7C-61.98-356.68-64.3-357.27-66.3-358.49z M-52.53-362.81c1.61-0.69,3.08-1.67,4.34-2.87
		c1.28-1.19,2.32-2.61,3.07-4.19c0.68-1.29,1-2.74,0.9-4.19c-0.09-1.15-0.69-2.2-1.62-2.87c-1.11-0.74-2.43-1.1-3.77-1.03
		c-1.63,0.01-3.25,0.36-4.74,1.03c-1.61,0.7-3.08,1.67-4.34,2.87c-1.28,1.19-2.32,2.61-3.07,4.19c-0.68,1.29-1,2.74-0.9,4.19
		c0.09,1.15,0.69,2.2,1.62,2.87c1.11,0.74,2.43,1.1,3.77,1.03C-55.64-361.79-54.02-362.14-52.53-362.81L-52.53-362.81z"/>
	<path id="Path_7" class="st3" d="M-83.29-357.23l-1.79-7.04h-5.66l-3.34,7.04h-6.16l11.99-25.29h11.51c1.93-0.09,3.85,0.3,5.6,1.12
		c1.28,0.62,2.2,1.79,2.5,3.18c0.24,1.68-0.08,3.39-0.91,4.88c-0.88,1.87-2.15,3.52-3.73,4.86c-1.63,1.38-3.5,2.44-5.53,3.12
		l2.11,8.13L-83.29-357.23z M-75.66-376.61c-0.6-0.76-1.83-1.14-3.68-1.14h-5.02l-4.18,8.81h5.02c1.66,0.05,3.31-0.35,4.77-1.16
		c1.31-0.75,2.35-1.88,2.98-3.25C-75.09-374.76-75.06-375.85-75.66-376.61L-75.66-376.61z"/>
	<path id="Path_8" class="st3" d="M-105.37-370.27h5.62l-4.86,10.26c-1.94,1.04-4.01,1.84-6.15,2.38c-2,0.53-4.06,0.81-6.13,0.83
		c-2.33,0.11-4.65-0.47-6.65-1.68c-1.62-1.04-2.71-2.75-2.98-4.66c-0.25-2.33,0.21-4.68,1.31-6.74c1.23-2.56,2.95-4.85,5.07-6.74
		c2.18-1.98,4.7-3.56,7.43-4.66c2.64-1.1,5.46-1.67,8.32-1.68c2-0.07,3.98,0.32,5.81,1.12c1.45,0.65,2.6,1.8,3.24,3.25l-5.6,3.47
		c-1-1.9-2.84-2.85-5.52-2.85c-1.72,0-3.42,0.35-5,1.01c-1.64,0.67-3.14,1.64-4.43,2.85c-1.29,1.2-2.35,2.63-3.1,4.23
		c-0.69,1.28-0.99,2.74-0.89,4.19c0.11,1.16,0.74,2.21,1.7,2.87c1.19,0.74,2.58,1.1,3.98,1.03c1.82-0.01,3.62-0.38,5.3-1.08
		L-105.37-370.27z"/>
	<path id="Path_9" class="st3" d="M-148.91-382.51h12.08c2.4-0.12,4.79,0.43,6.91,1.57c1.64,0.93,2.77,2.56,3.07,4.43
		c0.26,2.3-0.2,4.62-1.31,6.65c-1.2,2.53-2.9,4.79-4.99,6.65c-2.13,1.9-4.59,3.4-7.27,4.43c-2.68,1.04-5.53,1.57-8.4,1.57h-12.08
		L-148.91-382.51z M-146.85-362.03c2.61,0.02,5.16-0.72,7.36-2.11c2.22-1.37,3.99-3.36,5.09-5.73c1.14-2.41,1.26-4.32,0.34-5.73
		c-0.91-1.41-2.7-2.11-5.36-2.11h-5.62l-7.43,15.68L-146.85-362.03z"/>
	<path id="Path_10" class="st3" d="M-161.37-382.51h6.15l-11.99,25.29h-6.15L-161.37-382.51z"/>
	<path id="Path_11" class="st3" d="M-181.72-377.82l-3.17,6.68h12.31l-2.23,4.7h-12.31l-4.37,9.21h-6.15l11.99-25.29h20.1l-2.23,4.7
		L-181.72-377.82z"/>
</g>
<path id="Path_1_1_" class="st0" d="M260.48,27.98l-15.13-22.7c-1.39-2.16-3.79-3.46-6.36-3.46H25.22c-2.94,0-5.61,1.7-6.86,4.37
	L2.4,40.41c-1.09,2.34-0.91,5.08,0.48,7.26l7.57,11.35l0,0l0,0l7.56,11.35l0,0c1.39,2.18,3.8,3.5,6.38,3.5h214.27
	c2.97,0,5.67-1.74,6.9-4.45l15.47-34.22C262.08,32.86,261.87,30.14,260.48,27.98z M230.42,46.73l4.98-11.02l9.93-3.05l-10.79,23.87
	c-0.61,1.35-1.96,2.22-3.45,2.23H28.7l6.96-7.57h187.87C226.5,51.18,229.2,49.44,230.42,46.73L230.42,46.73z M257.57,33.65
	l-15.46,34.22c-0.61,1.35-1.96,2.22-3.45,2.23H24.39c-1.29,0-2.5-0.66-3.19-1.75c-0.19-0.3-0.34-0.62-0.44-0.96l4.46-4.85h205.87
	c2.97,0,5.67-1.74,6.9-4.45l12.16-26.91l6.4-1.97C257.86,30.28,258.27,32.1,257.57,33.65L257.57,33.65z"/>
<path id="Path_2_1_" class="st1" d="M21.66,68.93c0.75,0.76,1.78,1.18,2.85,1.17h214.16c1.49,0,2.83-0.87,3.45-2.23l15.47-34.23
	c0.64-1.41,0.35-3.07-0.73-4.19c-0.76-0.76-1.79-1.17-2.86-1.15l0,0c-1.55,0-2.96,0.91-3.6,2.32l-12.41,27.45
	c-1.22,2.71-3.92,4.45-6.9,4.45H24.39c-1.47,0-2.81,0.85-3.43,2.19l0,0C20.3,66.12,20.58,67.8,21.66,68.93z"/>
<path id="Path_3_1_" class="st2" d="M249.49,18.34c-0.77-0.91-1.9-1.42-3.09-1.39c-1.59,0.05-3.01,1.01-3.64,2.47l-12.34,27.3
	c-1.22,2.71-3.92,4.45-6.9,4.45H16.83c-1.47,0-2.81,0.85-3.43,2.18l0,0c-0.61,1.3-0.43,2.83,0.46,3.95
	c0.77,0.93,1.92,1.46,3.12,1.43h214.08c1.51,0,2.87-0.88,3.49-2.25l15.45-34.19C250.6,20.98,250.4,19.45,249.49,18.34z"/>
<g id="Group_1_1_" transform="translate(14.247 11.382)">
	<path id="Path_4_1_" class="st3" d="M208.8,22.85l-2.23,4.7h-20.59l11.99-25.29h20.1l-2.23,4.7h-13.98l-2.6,5.49h12.35L209.45,17
		H197.1l-2.78,5.85L208.8,22.85z"/>
	<path id="Path_5_1_" class="st3" d="M195.76,2.26l-23.5,25.29h-6.08l0.52-25.29h6.65l-0.47,18.06l16.77-18.06H195.76z"/>
	<path id="Path_6_1_" class="st3" d="M133.03,26.28c-1.63-1.05-2.72-2.76-2.99-4.68c-0.25-2.31,0.2-4.65,1.3-6.7
		c1.23-2.55,2.94-4.82,5.06-6.7c2.18-1.98,4.69-3.56,7.42-4.68c2.62-1.11,5.43-1.68,8.27-1.7c2.33-0.11,4.65,0.48,6.64,1.7
		c1.62,1.06,2.71,2.76,2.99,4.68c0.27,2.31-0.18,4.65-1.28,6.7c-1.23,2.55-2.95,4.83-5.08,6.7c-2.19,1.97-4.7,3.56-7.42,4.68
		c-2.61,1.11-5.42,1.68-8.25,1.7C137.35,28.09,135.03,27.5,133.03,26.28z M146.8,21.96c1.61-0.69,3.08-1.67,4.34-2.87
		c1.28-1.19,2.32-2.61,3.07-4.19c0.68-1.29,1-2.74,0.9-4.19c-0.09-1.15-0.69-2.2-1.62-2.87c-1.11-0.74-2.43-1.1-3.77-1.03
		c-1.63,0.01-3.25,0.36-4.74,1.03c-1.61,0.7-3.08,1.67-4.34,2.87c-1.28,1.19-2.32,2.61-3.07,4.19c-0.68,1.29-1,2.74-0.9,4.19
		c0.09,1.15,0.69,2.2,1.62,2.87c1.11,0.74,2.43,1.1,3.77,1.03C143.69,22.98,145.3,22.63,146.8,21.96L146.8,21.96z"/>
	<path id="Path_7_1_" class="st3" d="M116.04,27.54l-1.79-7.04h-5.66l-3.34,7.04H99.1l11.99-25.29h11.51
		c1.93-0.09,3.85,0.3,5.6,1.12c1.28,0.62,2.2,1.79,2.5,3.18c0.24,1.68-0.08,3.39-0.91,4.88c-0.88,1.87-2.15,3.52-3.73,4.86
		c-1.63,1.38-3.5,2.44-5.53,3.12l2.11,8.13L116.04,27.54z M123.67,8.16c-0.6-0.76-1.83-1.14-3.68-1.14h-5.02l-4.18,8.81h5.02
		c1.66,0.05,3.31-0.35,4.77-1.16c1.31-0.75,2.35-1.88,2.98-3.25C124.24,10.01,124.27,8.92,123.67,8.16L123.67,8.16z"/>
	<path id="Path_8_1_" class="st3" d="M93.96,14.5h5.62l-4.86,10.26c-1.94,1.04-4.01,1.84-6.15,2.38c-2,0.53-4.06,0.81-6.13,0.83
		c-2.33,0.11-4.65-0.47-6.65-1.68c-1.62-1.04-2.71-2.75-2.98-4.66c-0.25-2.33,0.21-4.68,1.31-6.74c1.23-2.56,2.95-4.85,5.07-6.74
		c2.18-1.98,4.7-3.56,7.43-4.66c2.64-1.1,5.46-1.67,8.32-1.68c2-0.07,3.98,0.32,5.81,1.12c1.45,0.65,2.6,1.8,3.24,3.25l-5.6,3.47
		c-1-1.9-2.84-2.85-5.52-2.85c-1.72,0-3.42,0.35-5,1.01c-1.64,0.67-3.14,1.64-4.43,2.85c-1.29,1.2-2.35,2.63-3.1,4.23
		c-0.69,1.28-0.99,2.74-0.89,4.19c0.11,1.16,0.74,2.21,1.7,2.87c1.19,0.74,2.58,1.1,3.98,1.03c1.82-0.01,3.62-0.38,5.3-1.08
		L93.96,14.5z"/>
	<path id="Path_9_1_" class="st3" d="M50.42,2.26H62.5c2.4-0.12,4.79,0.43,6.91,1.57c1.64,0.93,2.77,2.56,3.07,4.43
		c0.26,2.3-0.2,4.62-1.31,6.65c-1.2,2.53-2.9,4.79-4.99,6.65c-2.13,1.9-4.59,3.4-7.27,4.43c-2.68,1.04-5.53,1.57-8.4,1.57H38.43
		L50.42,2.26z M52.48,22.74c2.61,0.02,5.16-0.72,7.36-2.11c2.22-1.37,3.99-3.36,5.09-5.73c1.14-2.41,1.26-4.32,0.34-5.73
		c-0.91-1.41-2.7-2.11-5.36-2.11h-5.62l-7.43,15.68L52.48,22.74z"/>
	<path id="Path_10_1_" class="st3" d="M37.96,2.26h6.15L32.12,27.54h-6.15L37.96,2.26z"/>
	<path id="Path_11_1_" class="st3" d="M17.61,6.95l-3.17,6.68h12.31l-2.23,4.7H12.21l-4.37,9.21H1.69L13.68,2.26h20.1l-2.23,4.7
		L17.61,6.95z"/>
</g>
</svg>
