<?xml version="1.0" encoding="UTF-8"?>
<svg width="13px" height="12px" viewBox="0 0 13 12" version="1.1" xmlns="http://www.w3.org/2000/svg" xmlns:xlink="http://www.w3.org/1999/xlink">
    <!-- Generator: Sketch 57.1 (83088) - https://sketch.com -->
    <title>instagram</title>
    <desc>Created with Sketch.</desc>
    <g id="mobile" stroke="none" stroke-width="1" fill="none" fill-rule="evenodd">
        <g id="blog-list" transform="translate(-90.000000, -1007.000000)" fill="#22313F" fill-rule="nonzero">
            <g id="Footer" transform="translate(29.000000, 1007.000000)">
                <g id="social_media">
                    <g id="instagram" transform="translate(61.945776, 0.000000)">
                        <path d="M8.64042353,0 L3.29322353,0 C1.47734118,0 0,1.47741176 0,3.29329412 L0,8.64049412 C0,10.4564471 1.47734118,11.9337882 3.29322353,11.9337882 L8.64042353,11.9337882 C10.4564471,11.9337882 11.9337882,10.4563765 11.9337882,8.64049412 L11.9337882,3.29329412 C11.9337882,1.47741176 10.4564471,0 8.64042353,0 Z M10.8750353,8.64049412 C10.8750353,9.87261176 9.87261176,10.8749647 8.64049412,10.8749647 L3.29322353,10.8749647 C2.06117647,10.8749647 1.05882353,9.87261176 1.05882353,8.64049412 L1.05882353,3.29329412 C1.05882353,2.06124706 2.06117647,1.05882353 3.29322353,1.05882353 L8.64042353,1.05882353 C9.87254118,1.05882353 10.8750353,2.06124706 10.8750353,3.29329412 L10.8750353,8.64049412 L10.8750353,8.64049412 Z" id="Shape"></path>
                        <path d="M5.96689412,2.892 C4.27129412,2.892 2.89185882,4.27143529 2.89185882,5.96703529 C2.89185882,7.66256471 4.27129412,9.04192941 5.96689412,9.04192941 C7.66249412,9.04192941 9.04192941,7.66256471 9.04192941,5.96703529 C9.04192941,4.27143529 7.66249412,2.892 5.96689412,2.892 Z M5.96689412,7.98303529 C4.8552,7.98303529 3.95068235,7.07865882 3.95068235,5.96696471 C3.95068235,4.8552 4.85512941,3.95075294 5.96689412,3.95075294 C7.07865882,3.95075294 7.98310588,4.8552 7.98310588,5.96696471 C7.98310588,7.07865882 7.07858824,7.98303529 5.96689412,7.98303529 Z" id="Shape"></path>
                        <path d="M9.17089412,1.99418824 C8.96689412,1.99418824 8.76649412,2.07677647 8.62242353,2.22148235 C8.47764706,2.36548235 8.39442353,2.56595294 8.39442353,2.77065882 C8.39442353,2.97472941 8.47771765,3.17512941 8.62242353,3.31983529 C8.76642353,3.46383529 8.96689412,3.54712941 9.17089412,3.54712941 C9.3756,3.54712941 9.57536471,3.46383529 9.72007059,3.31983529 C9.86477647,3.17512941 9.94736471,2.97465882 9.94736471,2.77065882 C9.94736471,2.56595294 9.86477647,2.36548235 9.72007059,2.22148235 C9.57607059,2.07677647 9.3756,1.99418824 9.17089412,1.99418824 Z" id="Shape"></path>
                    </g>
                </g>
            </g>
        </g>
    </g>
</svg>