<?xml version="1.0" encoding="utf-8"?>
<!-- Generator: Adobe Illustrator 24.1.1, SVG Export Plug-In . SVG Version: 6.00 Build 0)  -->
<svg version="1.1" id="Layer_1" xmlns="http://www.w3.org/2000/svg" xmlns:xlink="http://www.w3.org/1999/xlink" x="0px" y="0px"
	 viewBox="0 0 145 145" style="enable-background:new 0 0 145 145;" xml:space="preserve">
<style type="text/css">
	.st0{fill:#E5F1FA;}
</style>
<g id="Layer_4">
	<path class="st0" d="M83.4,70.1c0.9,0,1.6,0.7,1.6,1.6c0,0.9-0.7,1.6-1.6,1.6h-1v1.6h-0.7v-4.7H83.4z M83.4,72.6
		c0.5,0,0.9-0.4,0.9-0.9c0-0.5-0.4-0.9-0.9-0.9h-1v1.8H83.4z"/>
	<path class="st0" d="M87.3,74.2h2.2v0.7h-2.9v-4.7h2.9v0.7h-2.2v1.3h2.1v0.7h-2.1V74.2z"/>
	<path class="st0" d="M92.9,70.1c1.3,0.1,2.3,1.2,2.2,2.5c-0.1,1.2-1,2.1-2.2,2.2h-1.7v-4.7H92.9z M92.9,74.1
		c0.9-0.1,1.6-0.9,1.5-1.8c-0.1-0.8-0.7-1.5-1.5-1.5h-1v3.3H92.9z"/>
	<path class="st0" d="M97.3,72.4h1.1c0.5,0,0.9-0.3,0.9-0.7s-0.3-0.9-0.7-0.9c-0.1,0-0.1,0-0.2,0h-1v4h-0.7v-4.7h1.7
		c0.8,0,1.5,0.6,1.5,1.4c0,0,0,0.1,0,0.1c0,0.7-0.5,1.3-1.2,1.4l1.5,1.8h-0.9l-1.7-1.8h-0.3L97.3,72.4z"/>
	<path class="st0" d="M102,70.8c0.9-0.9,2.4-0.9,3.4,0c0,0,0,0,0,0c0.9,0.9,0.9,2.5,0,3.4c-0.9,0.9-2.4,0.9-3.4,0c0,0,0,0,0,0
		C101.1,73.2,101.1,71.7,102,70.8z M104.9,71.3c-0.3-0.3-0.8-0.5-1.2-0.5c-0.5,0-0.9,0.2-1.2,0.5c-0.7,0.7-0.7,1.8,0,2.4
		c0.3,0.3,0.8,0.5,1.2,0.5c1,0,1.7-0.8,1.7-1.8C105.4,72,105.2,71.6,104.9,71.3z"/>
	<path class="st0" d="M112.6,70.8c0.4-0.4,1-0.7,1.6-0.7c1.1,0,2,0.7,2.2,1.7h-0.7c-0.2-0.7-0.8-1.1-1.5-1.1c-0.4,0-0.9,0.2-1.2,0.5
		c-0.6,0.7-0.6,1.7,0,2.4c0.6,0.6,1.7,0.7,2.3,0c0.2-0.2,0.3-0.4,0.4-0.7h0.7c-0.2,1-1.1,1.8-2.2,1.8c-0.6,0-1.2-0.3-1.6-0.7
		C111.7,73.2,111.7,71.7,112.6,70.8z"/>
	<path class="st0" d="M118.3,72.4h1.1c0.5,0,0.9-0.3,0.9-0.7s-0.3-0.9-0.7-0.9c-0.1,0-0.1,0-0.2,0h-1v4h-0.7v-4.7h1.7
		c0.8,0,1.5,0.6,1.5,1.4c0,0,0,0.1,0,0.1c0,0.7-0.5,1.3-1.2,1.4l1.5,1.8h-0.9l-1.7-1.8h-0.3L118.3,72.4z"/>
	<path class="st0" d="M122.9,73.4v-3.3h0.7v3.3c0,0.5,0.6,0.8,1,0.8s1-0.3,1-0.8v-3.3h0.7v3.3c-0.2,1-1.1,1.6-2.1,1.4
		C123.5,74.7,122.9,74.1,122.9,73.4L122.9,73.4z"/>
	<path class="st0" d="M128.2,70.1h3.8l-3.1,4.1h2.6v0.6h-4l3.1-4.1h-2.5L128.2,70.1z"/>
	<path class="st0" d="M134.1,67.8v9.3H79.6v-9.3H134.1 M137,65H76.7v15H137V65z"/>
	<path class="st0" d="M66,69.8l-25-25l-2.7-2.7l-2.7,2.7l-25,25L8,72.5l2.7,2.7l25,25l2.7,2.7l2.6-2.7l25-25l2.7-2.7L66,69.8z
		 M38.3,47.5l23.1,23.1H15.3L38.3,47.5z M38.3,97.4L15.3,74.4h46.1L38.3,97.4z"/>
	<path class="st0" d="M44.6,58.5c-1.7,0-3.2,0.9-4.1,2.3l-0.1-0.6h-4.2l-0.1,0.5c-0.9-1.3-2.4-2.2-4.1-2.2c-2.7,0-4.9,2.2-4.9,4.9
		c0,2.7,2.2,4.9,4.9,4.9c2.7,0,4.9-2.2,4.9-4.9c0-0.2,0-0.4,0-0.6l0.3-1.5h2.4l0.3,1.5c0,0.2,0,0.4,0,0.6c0,2.7,2.2,4.9,4.9,4.9
		s4.9-2.2,4.9-4.9C49.5,60.7,47.3,58.5,44.6,58.5z M32,66.9c-1.9,0-3.4-1.5-3.4-3.4c0-1.9,1.5-3.4,3.4-3.4c1.9,0,3.4,1.5,3.4,3.4
		C35.5,65.3,33.9,66.9,32,66.9z M44.6,66.9c-1.9,0-3.4-1.5-3.4-3.4c0-1.9,1.5-3.4,3.4-3.4s3.4,1.5,3.4,3.4
		C48.1,65.3,46.5,66.9,44.6,66.9z"/>
	<g>
		<path class="st0" d="M30.3,85.3v-1.9c0.4,0,0.8-0.1,1.1-0.3c0.3-0.2,0.4-0.5,0.5-0.9c0.1-0.6,0.2-1.2,0.1-1.9c0-0.7,0-1.3,0.1-2
			c0.1-0.4,0.3-0.7,0.5-1c0.3-0.3,0.6-0.5,1-0.6c0.6-0.1,1.1-0.2,1.7-0.2h0.4v2c-0.5,0-0.9,0-1.4,0.2c-0.2,0.2-0.3,0.5-0.3,1
			c0,1.1,0,2.1-0.3,3.2c-0.2,0.6-0.7,1.2-1.3,1.5c0.5,0.3,0.9,0.7,1.1,1.2c0.3,1.1,0.4,2.2,0.4,3.3c0,0.3,0,0.6,0.2,0.8
			c0.1,0.1,0.2,0.2,0.4,0.3c0.4,0.1,0.7,0.1,1.1,0.1v1.9h-0.4c-0.8,0.1-1.5-0.1-2.2-0.4c-0.4-0.2-0.7-0.6-0.9-0.9
			c-0.2-0.8-0.3-1.6-0.3-2.4c0-0.6,0-1.2-0.1-1.8c-0.1-0.3-0.3-0.6-0.5-0.8C31.1,85.4,30.7,85.3,30.3,85.3z"/>
		<path class="st0" d="M46.4,83.3v1.9c-0.4,0-0.8,0.1-1.1,0.3c-0.3,0.2-0.5,0.5-0.5,0.8c-0.1,0.6-0.2,1.2-0.2,1.9c0,0.7,0,1.3-0.1,2
			c-0.1,0.4-0.2,0.7-0.5,1c-0.3,0.3-0.6,0.5-1,0.6c-0.6,0.1-1.1,0.2-1.7,0.2h-0.4v-2c0.5,0.1,0.9,0,1.4-0.1c0.2-0.3,0.3-0.6,0.3-1
			c0-1.1,0.1-2.1,0.3-3.2c0.2-0.6,0.7-1.2,1.3-1.5c-0.5-0.3-0.9-0.7-1.1-1.2c-0.3-1.1-0.5-2.3-0.4-3.5c0-0.3,0-0.6-0.2-0.8
			c-0.1-0.1-0.3-0.2-0.4-0.3c-0.4-0.1-0.7-0.1-1.1-0.1v-2h0.4c0.8-0.1,1.5,0.1,2.2,0.4c0.4,0.2,0.7,0.6,0.8,0.9
			c0.2,0.8,0.3,1.6,0.3,2.4c0,0.6,0,1.2,0.1,1.9c0.1,0.3,0.2,0.6,0.5,0.9C45.6,83.2,46,83.3,46.4,83.3z"/>
		<path class="st0" d="M37.2,80.4h2.3v2.1h-2.3V80.4z M37.2,83.9h2.3v1.8c0,0.5-0.1,1.1-0.4,1.5c-0.4,0.5-0.8,0.8-1.4,1l-0.5-0.9
			c0.3-0.1,0.6-0.3,0.8-0.6c0.2-0.2,0.2-0.4,0.3-0.7h-1.1V83.9z"/>
	</g>
</g>
</svg>
