<?xml version="1.0" encoding="utf-8"?>
<!-- Generator: Adobe Illustrator 24.1.1, SVG Export Plug-In . SVG Version: 6.00 Build 0)  -->
<svg version="1.1" id="Layer_1" xmlns="http://www.w3.org/2000/svg" xmlns:xlink="http://www.w3.org/1999/xlink" x="0px" y="0px"
	 viewBox="0 0 487.7 150" style="enable-background:new 0 0 487.7 150;" xml:space="preserve">
<style type="text/css">
	.st0{fill:#E4F1FE;}
</style>
<g>
	<path class="st0" d="M143.1,68.2L81.4,6.6l-6.6-6.7l-6.7,6.7L6.4,68.2L0,74.9l6.7,6.7l61.7,61.7l6.7,6.7l6.4-6.7l61.7-61.7l6.7-6.7
		L143.1,68.2z M74.8,13.2l57,57h-114L74.8,13.2z M74.8,136.6l-57-57h113.7L74.8,136.6z"/>
	<path class="st0" d="M90.3,40.6c-4.2,0-7.9,2.2-10.1,5.7l-0.3-1.5H69.6L69.4,46c-2.2-3.2-5.9-5.4-10.1-5.4
		c-6.7,0-12.1,5.4-12.1,12.1s5.4,12.1,12.1,12.1s12.1-5.4,12.1-12.1c0-0.5,0-1,0-1.5l0.7-3.7H78l0.7,3.7c0,0.5,0,1,0,1.5
		c0,6.7,5.4,12.1,12.1,12.1s12.1-5.5,12.1-12.1C102.4,46,97,40.6,90.3,40.6z M59.2,61.1c-4.7,0-8.4-3.7-8.4-8.4s3.7-8.4,8.4-8.4
		s8.4,3.7,8.4,8.4S63.9,61.1,59.2,61.1z M90.3,61.1c-4.7,0-8.4-3.7-8.4-8.4s3.7-8.4,8.4-8.4c4.7,0,8.4,3.7,8.4,8.4
		S95,61.1,90.3,61.1z"/>
	<g>
		<path class="st0" d="M55,106.5v-4.7c1,0,2-0.2,2.7-0.7s1-1.2,1.2-2.2c0.2-1.5,0.5-3,0.5-4.7s0-3.2,0.2-4.9c0.2-1,0.7-1.7,1.2-2.5
			c0.7-0.7,1.5-1.2,2.5-1.5c1.5-0.2,2.7-0.5,4.2-0.5h1v4.9c-1.2,0-2.2,0-3.5,0.5c-0.5,0.5-0.7,1.2-0.7,2.5c0,2.7,0,5.2-0.7,7.9
			c-0.5,1.5-1.7,3-3.2,3.7c1.2,0.7,2.2,1.7,2.7,3c0.7,2.7,1,5.4,1,8.1c0,0.7,0,1.5,0.5,2c0.2,0.2,0.5,0.5,1,0.7
			c1,0.2,1.7,0.2,2.7,0.2v4.7h-1c-2,0.2-3.7-0.2-5.4-1c-1-0.5-1.7-1.5-2.2-2.2c-0.5-2-0.7-3.9-0.7-5.9c0-1.5,0-3-0.2-4.4
			c-0.2-0.7-0.7-1.5-1.2-2C57,106.7,56,106.5,55,106.5z"/>
		<path class="st0" d="M94.7,101.8v4.7c-1,0-2,0.2-2.7,0.7s-1.2,1.2-1.2,2c-0.2,1.5-0.5,3-0.5,4.7s0,3.2-0.2,4.9
			c-0.2,1-0.5,1.7-1.2,2.5c-0.7,0.7-1.5,1.2-2.5,1.5c-1.5,0.2-2.7,0.5-4.2,0.5h-1v-4.9c1.2,0.2,2.2,0,3.5-0.2
			c0.5-0.7,0.7-1.5,0.7-2.5c0-2.7,0.2-5.2,0.7-7.9c0.5-1.5,1.7-3,3.2-3.7c-1.2-0.7-2.2-1.7-2.7-3c-0.7-2.7-1.2-5.7-1-8.6
			c0-0.7,0-1.5-0.5-2c-0.2-0.2-0.7-0.5-1-0.7c-1-0.2-1.7-0.2-2.7-0.2v-4.9h1c2-0.2,3.7,0.2,5.4,1c1,0.5,1.7,1.5,2,2.2
			c0.5,2,0.7,3.9,0.7,5.9c0,1.5,0,3,0.2,4.7c0.2,0.7,0.5,1.5,1.2,2.2C92.8,101.3,93.8,101.8,94.7,101.8z"/>
		<path class="st0" d="M72,94.6h5.7v5.2H72V94.6z M72,103h5.7v4.4c0,1.2-0.2,2.7-1,3.7c-1,1.2-2,2-3.5,2.5l-1.2-2.2
			c0.7-0.2,1.5-0.7,2-1.5c0.5-0.5,0.5-1,0.7-1.7H72V103z"/>
	</g>
	<path class="st0" d="M220.4,63.2c5.1,0,7.6,3.9,7.6,7.8s-2.5,7.8-7.6,7.8h-5.2v7.8h-3.4V63.2H220.4z M220.4,75.5
		c2.5,0,4.4-2,4.4-4.4s-2-4.4-4.4-4.4h-5.2v8.9L220.4,75.5z"/>
	<path class="st0" d="M239.9,83.2h10.9v3.4h-14.3V63.2h14.3v3.4h-10.9v6.6h10.7v3.4h-10.7V83.2z"/>
	<path class="st0" d="M268,63.2c7.7,0,11.5,5.9,11.5,11.7s-3.8,11.7-11.5,11.7h-8.4V63.2H268z M268,83.2c5.4,0,8.2-4.2,8.2-8.3
		s-2.7-8.3-8.2-8.3h-5v16.7L268,83.2z"/>
	<path class="st0" d="M289.9,74.7h5.3c2.3,0,4.1-1.8,4.2-4c0-2.2-1.6-4-3.8-4.1h-5.5v20h-3.4V63.2h8.5c4-0.2,7.4,2.9,7.6,6.8
		c0,0.2,0,0.4,0,0.6c0.1,3.6-2.5,6.7-6.1,7.2l7.4,8.8h-4.2l-8.5-8.8H290L289.9,74.7z"/>
	<path class="st0" d="M313,66.4c4.6-4.7,12.1-4.7,16.8-0.2l0.2,0.2c4.7,4.7,4.7,12.3,0,17l0,0c-4.6,4.7-12.1,4.7-16.8,0.2l0,0
		l-0.1-0.2C308.3,78.8,308.3,71.2,313,66.4C313,66.5,313,66.4,313,66.4z M327.5,68.9c-1.6-1.6-3.8-2.5-6.1-2.6c-2.3,0-4.4,0.9-6,2.6
		c-3.3,3.3-3.4,8.8,0,12.1l0,0l0,0c1.6,1.6,3.7,2.5,6,2.5c4.8,0,8.6-3.9,8.6-8.7C329.9,72.6,329,70.5,327.5,68.9z"/>
	<path class="st0" d="M365.7,66.5c2.1-2.2,5-3.5,8.1-3.5c5.2-0.1,9.8,3.5,10.9,8.6h-3.4c-1-3.3-4.1-5.4-7.6-5.3
		c-2.2,0-4.2,0.9-5.7,2.5c-3.2,3.3-3.2,8.7,0,12c3,3.2,8.1,3.4,11.4,0.4c1-0.9,1.7-2.1,2.1-3.4h3.3c-1.1,5.2-5.7,9-11.1,8.9
		c-3.1,0-6-1.3-8.1-3.5C361.3,78.6,361.3,71.2,365.7,66.5L365.7,66.5z"/>
	<path class="st0" d="M394.1,74.7h5.3c2.3,0,4.1-1.7,4.2-4c0-2.2-1.6-4-3.8-4.2h-5.5v20h-3.4V63.2h8.6c4-0.2,7.4,2.9,7.6,6.8
		c0,0.2,0,0.4,0,0.6c0.1,3.6-2.5,6.7-6.1,7.2l7.4,8.8H404l-8.5-8.8h-1.4V74.7z"/>
	<path class="st0" d="M417.1,79.5V63.1h3.4v16.4c0,2.6,2.8,3.9,5.3,3.9s5.2-1.3,5.2-3.9V63.1h3.4v16.4c0,4.8-4.6,7.2-8.6,7.2
		S417.1,84.3,417.1,79.5z"/>
	<path class="st0" d="M443.7,63.2h19.2l-15.4,20.4h13.1v3h-19.7l15.4-20.3h-12.5v-3.1H443.7z"/>
	<path class="st0" d="M473.3,51.7v46.4H201.4V51.7H473.3 M487.6,37.4H187.1v75h300.5V37.4z"/>
</g>
</svg>
