<?xml version="1.0" encoding="utf-8"?>
<!-- Generator: Adobe Illustrator 24.1.1, SVG Export Plug-In . SVG Version: 6.00 Build 0)  -->
<svg version="1.1" id="Layer_1" xmlns="http://www.w3.org/2000/svg" xmlns:xlink="http://www.w3.org/1999/xlink" x="0px" y="0px"
	 viewBox="0 0 145 145" style="enable-background:new 0 0 145 145;" xml:space="preserve">
<style type="text/css">
	.st0{fill:#E5F1FA;}
</style>
<g>
	<path class="st0" d="M124.6,53.5L77.6,6.4l-5.1-5.1l-5.1,5.1L20.4,53.5l-5.1,5.1l5.1,5.1l47.1,47.1l5.1,5.1l5.1-5.1l47.1-47.1
		l5.1-5.1L124.6,53.5z M72.5,11.5L116,55H29L72.5,11.5z M72.5,105.6L29,62.1h87L72.5,105.6z"/>
	<g>
		<path class="st0" d="M35.3,128.2c1.6,0,2.4,1.2,2.4,2.5c0,1.2-0.8,2.4-2.4,2.4h-1.6v2.4h-1.1v-7.3H35.3z M35.3,132.1
			c0.9,0,1.3-0.7,1.3-1.4c0-0.7-0.4-1.4-1.3-1.4h-1.6v2.8H35.3z"/>
		<path class="st0" d="M41.4,134.5h3.4v1.1h-4.5v-7.3h4.5v1.1h-3.4v2.1h3.3v1.1h-3.3V134.5z"/>
		<path class="st0" d="M50.2,128.2c2.4,0,3.6,1.8,3.6,3.7c0,1.8-1.2,3.7-3.6,3.7h-2.6v-7.3H50.2z M50.2,134.5c1.7,0,2.6-1.3,2.6-2.6
			c0-1.3-0.9-2.6-2.6-2.6h-1.6v5.2H50.2z"/>
		<path class="st0" d="M57.1,131.8h1.7c0.9,0,1.3-0.6,1.3-1.3c0-0.6-0.4-1.3-1.3-1.3h-1.6v6.3h-1v-7.3h2.7c1.6,0,2.4,1.2,2.4,2.3
			c0,1-0.6,2-1.9,2.2l2.3,2.8h-1.4l-2.7-2.8h-0.4L57.1,131.8z"/>
		<path class="st0" d="M64.3,129.2c0.7-0.7,1.6-1.1,2.6-1.1c1,0,2,0.4,2.7,1.1c0.7,0.7,1.1,1.6,1.1,2.7s-0.4,2-1.1,2.7
			c-0.7,0.7-1.6,1.1-2.7,1.1c-1,0-2-0.4-2.6-1.1c-0.7-0.7-1.1-1.6-1.1-2.7S63.6,129.9,64.3,129.2z M68.8,130
			c-0.5-0.5-1.2-0.8-1.9-0.8c-0.7,0-1.4,0.3-1.9,0.8c-0.5,0.5-0.8,1.2-0.8,1.9s0.3,1.4,0.8,1.9c0.5,0.5,1.2,0.8,1.9,0.8
			c0.7,0,1.4-0.3,1.9-0.8c0.5-0.5,0.8-1.1,0.8-1.9C69.6,131.1,69.3,130.5,68.8,130z"/>
		<path class="st0" d="M80.8,129.3c0.6-0.7,1.5-1.1,2.5-1.1c1.7,0,3,1,3.4,2.7h-1c-0.4-1.1-1.3-1.7-2.4-1.7c-0.7,0-1.3,0.3-1.8,0.8
			c-0.5,0.5-0.8,1.1-0.8,1.9c0,0.7,0.3,1.4,0.8,1.9c0.5,0.5,1.1,0.8,1.8,0.8c1.1,0,2.1-0.6,2.4-1.8h1c-0.4,1.7-1.8,2.8-3.5,2.8
			c-1,0-1.9-0.4-2.5-1.1c-0.6-0.7-1-1.6-1-2.6C79.8,130.9,80.2,129.9,80.8,129.3z"/>
		<path class="st0" d="M89.7,131.8h1.7c0.9,0,1.3-0.6,1.3-1.3c0-0.6-0.4-1.3-1.3-1.3h-1.6v6.3h-1v-7.3h2.7c1.6,0,2.4,1.2,2.4,2.3
			c0,1-0.6,2-1.9,2.2l2.3,2.8h-1.4l-2.7-2.8l-0.4,0L89.7,131.8z"/>
		<path class="st0" d="M96.9,133.3v-5.1H98v5.1c0,0.8,0.9,1.2,1.6,1.2c0.8,0,1.6-0.4,1.6-1.2v-5.1h1.1v5.1c0,1.5-1.4,2.3-2.7,2.3
			C98.3,135.6,96.9,134.8,96.9,133.3z"/>
		<path class="st0" d="M105.2,128.2h5l1,0l-4.8,6.4h4.1v0.9h-5.2l-1,0l4.8-6.4h-3.9V128.2z"/>
	</g>
	<path class="st0" d="M114.5,124.6v14.5H29.3v-14.5H114.5 M119,120.1h-4.5H29.3h-4.5v4.5v14.5v4.5h4.5h85.2h4.5v-4.5v-14.5V120.1
		L119,120.1z"/>
	<g>
		<g>
			<path class="st0" d="M57.4,82.7V79c0.9,0,1.6-0.2,2.1-0.6c0.5-0.4,0.8-0.9,1-1.6c0.2-0.7,0.3-1.9,0.3-3.5c0-1.7,0.1-3,0.3-3.8
				c0.2-0.8,0.5-1.4,1-1.9c0.5-0.5,1.1-0.9,1.9-1.1c0.8-0.2,1.9-0.4,3.2-0.4h0.8v3.7c-1.4,0-2.2,0.1-2.6,0.4
				c-0.4,0.3-0.5,0.9-0.5,1.8c0,2.9-0.2,4.9-0.5,6c-0.3,1.2-1.1,2.1-2.4,2.8c0.9,0.5,1.7,1.3,2.1,2.3c0.5,1,0.7,3.2,0.7,6.6
				c0,0.8,0.1,1.3,0.4,1.5c0.2,0.2,0.5,0.4,0.7,0.5c0.3,0.1,0.9,0.2,2,0.2v3.7H67c-2.1,0-3.5-0.3-4.2-0.8c-0.7-0.5-1.3-1.1-1.6-1.8
				c-0.3-0.7-0.5-2.2-0.5-4.6c0-1.6-0.1-2.8-0.3-3.5c-0.2-0.7-0.5-1.2-1-1.6C59,83,58.3,82.8,57.4,82.7z"/>
		</g>
		<g>
			<path class="st0" d="M87.6,79v3.7c-0.9,0-1.6,0.2-2.1,0.6c-0.5,0.4-0.8,0.9-1,1.6c-0.2,0.7-0.3,1.9-0.3,3.5c0,1.7-0.1,3-0.3,3.8
				c-0.2,0.8-0.5,1.4-1,1.9c-0.5,0.5-1.1,0.9-1.9,1.1c-0.8,0.2-1.9,0.4-3.2,0.4h-0.8v-3.7c1.4,0,2.2-0.1,2.6-0.4
				c0.4-0.3,0.5-0.9,0.5-1.8c0-2.9,0.2-4.9,0.5-6c0.3-1.2,1.1-2.1,2.4-2.8c-0.9-0.5-1.7-1.3-2.1-2.3c-0.5-1-0.7-3.2-0.7-6.6
				c0-0.8-0.1-1.3-0.4-1.5c-0.2-0.2-0.5-0.4-0.7-0.5c-0.3-0.1-0.9-0.2-2-0.2v-3.7H78c2.1,0,3.5,0.3,4.2,0.8c0.7,0.5,1.3,1.1,1.6,1.8
				c0.3,0.7,0.5,2.2,0.5,4.6c0,1.6,0.1,2.8,0.3,3.5c0.2,0.7,0.5,1.2,1,1.6C86,78.8,86.7,79,87.6,79z"/>
		</g>
		<g>
			<path class="st0" d="M70.3,73.6h4.3v4h-4.3V73.6z M70.3,80.1h4.3v3.3c0,1.2-0.3,2.2-0.8,2.9c-0.5,0.7-1.4,1.3-2.6,1.9l-0.9-1.8
				c0.8-0.4,1.3-0.7,1.6-1.1c0.3-0.4,0.4-0.8,0.5-1.3h-2.1V80.1z"/>
		</g>
	</g>
	<path class="st0" d="M83.7,30.7c-3.1,0-5.8,1.6-7.3,4l-0.2-1h-7.5l-0.2,0.9c-1.6-2.4-4.2-4-7.3-4c-4.8,0-8.7,3.9-8.7,8.7
		c0,4.8,3.9,8.7,8.7,8.7c4.8,0,8.7-3.9,8.7-8.7c0-0.4,0-0.8-0.1-1.1l0.5-2.6h4.2l0.5,2.6c0,0.4-0.1,0.8-0.1,1.1
		c0,4.8,3.9,8.7,8.7,8.7c4.8,0,8.7-3.9,8.7-8.7C92.5,34.6,88.5,30.7,83.7,30.7z M61.3,45.5c-3.4,0-6.1-2.7-6.1-6.1s2.7-6.1,6.1-6.1
		c3.4,0,6.1,2.7,6.1,6.1S64.6,45.5,61.3,45.5z M83.7,45.5c-3.4,0-6.1-2.7-6.1-6.1s2.7-6.1,6.1-6.1s6.1,2.7,6.1,6.1
		S87.1,45.5,83.7,45.5z"/>
</g>
</svg>
