<?xml version="1.0" encoding="utf-8"?>
<!-- Generator: Adobe Illustrator 24.1.1, SVG Export Plug-In . SVG Version: 6.00 Build 0)  -->
<svg version="1.1" id="Layer_1" xmlns="http://www.w3.org/2000/svg" xmlns:xlink="http://www.w3.org/1999/xlink" x="0px" y="0px"
	 viewBox="0 0 487.7 150" style="enable-background:new 0 0 487.7 150;" xml:space="preserve">
<style type="text/css">
	.st0{fill:#22313F;}
</style>
<path class="st0" d="M143.2,68.3L81.5,6.7L74.9,0l-6.7,6.7L6.5,68.3L0.1,75l6.7,6.7l61.7,61.7l6.7,6.7l6.4-6.7l61.7-61.7l6.7-6.7
	L143.2,68.3z M74.9,13.3l57,57h-114L74.9,13.3z M74.9,136.7l-57-57h113.7L74.9,136.7z"/>
<path class="st0" d="M90.4,40.7c-4.2,0-7.9,2.2-10.1,5.7L80,44.9H69.7l-0.2,1.2c-2.2-3.2-5.9-5.4-10.1-5.4
	c-6.7,0-12.1,5.4-12.1,12.1c0,6.7,5.4,12.1,12.1,12.1c6.7,0,12.1-5.4,12.1-12.1c0-0.5,0-1,0-1.5l0.7-3.7h5.9l0.7,3.7
	c0,0.5,0,1,0,1.5c0,6.7,5.4,12.1,12.1,12.1S103,59.4,103,52.8C102.5,46.1,97.1,40.7,90.4,40.7z M59.3,61.2c-4.7,0-8.4-3.7-8.4-8.4
	s3.7-8.4,8.4-8.4s8.4,3.7,8.4,8.4S64,61.2,59.3,61.2z M90.4,61.2c-4.7,0-8.4-3.7-8.4-8.4s3.7-8.4,8.4-8.4c4.7,0,8.4,3.7,8.4,8.4
	S95.1,61.2,90.4,61.2z"/>
<g>
	<path class="st0" d="M55.1,106.6v-4.7c1,0,2-0.2,2.7-0.7c0.7-0.5,1-1.2,1.2-2.2c0.2-1.5,0.5-3,0.5-4.7c0-1.7,0-3.2,0.2-4.9
		c0.2-1,0.7-1.7,1.2-2.5c0.7-0.7,1.5-1.2,2.5-1.5c1.5-0.2,2.7-0.5,4.2-0.5h1v4.9c-1.2,0-2.2,0-3.5,0.5c-0.5,0.5-0.7,1.2-0.7,2.5
		c0,2.7,0,5.2-0.7,7.9c-0.5,1.5-1.7,3-3.2,3.7c1.2,0.7,2.2,1.7,2.7,3c0.7,2.7,1,5.4,1,8.1c0,0.7,0,1.5,0.5,2c0.2,0.2,0.5,0.5,1,0.7
		c1,0.2,1.7,0.2,2.7,0.2v4.7h-1c-2,0.2-3.7-0.2-5.4-1c-1-0.5-1.7-1.5-2.2-2.2c-0.5-2-0.7-3.9-0.7-5.9c0-1.5,0-3-0.2-4.4
		c-0.2-0.7-0.7-1.5-1.2-2C57.1,106.8,56.1,106.6,55.1,106.6z"/>
	<path class="st0" d="M94.8,101.9v4.7c-1,0-2,0.2-2.7,0.7c-0.7,0.5-1.2,1.2-1.2,2c-0.2,1.5-0.5,3-0.5,4.7c0,1.7,0,3.2-0.2,4.9
		c-0.2,1-0.5,1.7-1.2,2.5c-0.7,0.7-1.5,1.2-2.5,1.5c-1.5,0.2-2.7,0.5-4.2,0.5h-1v-4.9c1.2,0.2,2.2,0,3.5-0.2
		c0.5-0.7,0.7-1.5,0.7-2.5c0-2.7,0.2-5.2,0.7-7.9c0.5-1.5,1.7-3,3.2-3.7c-1.2-0.7-2.2-1.7-2.7-3c-0.7-2.7-1.2-5.7-1-8.6
		c0-0.7,0-1.5-0.5-2c-0.2-0.2-0.7-0.5-1-0.7c-1-0.2-1.7-0.2-2.7-0.2v-4.9h1c2-0.2,3.7,0.2,5.4,1c1,0.5,1.7,1.5,2,2.2
		c0.5,2,0.7,3.9,0.7,5.9c0,1.5,0,3,0.2,4.7c0.2,0.7,0.5,1.5,1.2,2.2C92.9,101.4,93.9,101.9,94.8,101.9z"/>
	<path class="st0" d="M72.1,94.7h5.7v5.2h-5.7V94.7z M72.1,103.1h5.7v4.4c0,1.2-0.2,2.7-1,3.7c-1,1.2-2,2-3.5,2.5l-1.2-2.2
		c0.7-0.2,1.5-0.7,2-1.5c0.5-0.5,0.5-1,0.7-1.7h-2.7C72.1,108.3,72.1,103.1,72.1,103.1z"/>
</g>
<path class="st0" d="M220.5,63.3c5.1,0,7.6,3.9,7.6,7.8s-2.5,7.8-7.6,7.8h-5.2v7.8h-3.4V63.3H220.5z M220.5,75.6
	c2.5,0,4.4-2,4.4-4.4c0-2.4-2-4.4-4.4-4.4h-5.2v8.9L220.5,75.6z"/>
<path class="st0" d="M240,83.3h10.9v3.4h-14.3V63.3h14.3v3.4H240v6.6h10.7v3.4H240V83.3z"/>
<path class="st0" d="M268.1,63.3c7.7,0,11.5,5.9,11.5,11.7s-3.8,11.7-11.5,11.7h-8.4V63.3H268.1z M268.1,83.3c5.4,0,8.2-4.2,8.2-8.3
	s-2.7-8.3-8.2-8.3h-5v16.7L268.1,83.3z"/>
<path class="st0" d="M290,74.8h5.3c2.3,0,4.1-1.8,4.2-4c0-2.2-1.6-4-3.8-4.1h-5.5v20h-3.4V63.3h8.5c4-0.2,7.4,2.9,7.6,6.8
	c0,0.2,0,0.4,0,0.6c0.1,3.6-2.5,6.7-6.1,7.2l7.4,8.8H300l-8.5-8.8h-1.4L290,74.8z"/>
<path class="st0" d="M313.1,66.5c4.6-4.7,12.1-4.7,16.8-0.2l0.2,0.2c4.7,4.7,4.7,12.3,0,17c0,0,0,0,0,0c-4.6,4.7-12.1,4.7-16.8,0.2
	c0,0,0,0,0,0l-0.1-0.2C308.4,78.9,308.4,71.3,313.1,66.5C313.1,66.6,313.1,66.5,313.1,66.5z M327.6,69c-1.6-1.6-3.8-2.5-6.1-2.6
	c-2.3,0-4.4,0.9-6,2.6c-3.3,3.3-3.4,8.8,0,12.1c0,0,0,0,0,0l0,0c1.6,1.6,3.7,2.5,6,2.5c4.8,0,8.6-3.9,8.6-8.7
	C330,72.7,329.1,70.6,327.6,69z"/>
<path class="st0" d="M365.8,66.6c2.1-2.2,5-3.5,8.1-3.5c5.2-0.1,9.8,3.5,10.9,8.6h-3.4c-1-3.3-4.1-5.4-7.6-5.3
	c-2.2,0-4.2,0.9-5.7,2.5c-3.2,3.3-3.2,8.7,0,12c3,3.2,8.1,3.4,11.4,0.4c1-0.9,1.7-2.1,2.1-3.4h3.3c-1.1,5.2-5.7,9-11.1,8.9
	c-3.1,0-6-1.3-8.1-3.5C361.4,78.7,361.4,71.3,365.8,66.6L365.8,66.6z"/>
<path class="st0" d="M394.2,74.8h5.3c2.3,0,4.1-1.7,4.2-4c0-2.2-1.6-4-3.8-4.2h-5.5v20H391V63.3h8.6c4-0.2,7.4,2.9,7.6,6.8
	c0,0.2,0,0.4,0,0.6c0.1,3.6-2.5,6.7-6.1,7.2l7.4,8.8h-4.4l-8.5-8.8h-1.4L394.2,74.8z"/>
<path class="st0" d="M417.2,79.6V63.2h3.4v16.4c0,2.6,2.8,3.9,5.3,3.9s5.2-1.3,5.2-3.9V63.2h3.4v16.4c0,4.8-4.6,7.2-8.6,7.2
	S417.2,84.4,417.2,79.6z"/>
<path class="st0" d="M443.8,63.3h19.2l-15.4,20.4h13.1v3h-19.7l15.4-20.3h-12.5V63.3z"/>
<path class="st0" d="M473.4,51.8v46.4H201.5V51.8H473.4 M487.7,37.5H187.2v75h300.5V37.5z"/>
</svg>
