<?xml version="1.0" encoding="utf-8"?>
<!-- Generator: Adobe Illustrator 22.1.0, SVG Export Plug-In . SVG Version: 6.00 Build 0)  -->
<svg version="1.0" id="Camada_1" xmlns="http://www.w3.org/2000/svg" xmlns:xlink="http://www.w3.org/1999/xlink" x="0px" y="0px"
	 viewBox="0 0 140 85" enable-background="new 0 0 140 85" xml:space="preserve">
<g>
	<polygon fill="#0B090C" points="2,72.8 2,52.3 13.5,52.3 13.5,54.5 4.9,54.5 4.9,61 12.1,61 12.1,63.2 4.9,63.2 4.9,70.6 
		14.1,70.6 14.1,72.8 	"/>
	<path fill="#0B090C" d="M23,72.8V52.3h6.2c2,0,3.5,0.4,4.5,1.3c1,0.9,1.6,2.1,1.6,3.8c0,2.7-1.4,4.7-4.1,5.8l6.8,9.6h-3.6l-5.8-8.7
		h-2.7v8.7L23,72.8z M25.9,61.9h0.9c3.6,0,5.5-1.4,5.5-4.3c0-2.1-1.5-3.2-4.6-3.2h-1.8V61.9z"/>
	<rect x="46.6" y="52.3" fill="#0B090C" width="2.9" height="20.5"/>
	<path fill="#0B090C" d="M64.5,73.3c-1.4,0-3.1-0.3-5.3-0.9v-2.9c2.3,1.1,4.2,1.6,5.7,1.6c1.1,0,2.1-0.3,2.8-0.9
		c0.7-0.6,1.1-1.5,1-2.4c0-0.7-0.2-1.5-0.7-2c-0.5-0.6-1.3-1.2-2.5-1.9l-1.4-0.8c-1.7-1-3-1.9-3.7-2.8c-0.7-0.9-1.1-2-1.1-3.1
		c0-1.5,0.6-2.9,1.7-3.9c1.1-1,2.6-1.5,4.4-1.5c1.7,0,3.4,0.3,5,0.8v2.7c-2.2-0.9-3.8-1.3-4.8-1.3c-0.9,0-1.8,0.3-2.5,0.8
		c-0.6,0.5-1,1.2-1,2c0,0.7,0.3,1.3,0.7,1.8c0.5,0.5,1.4,1.2,2.6,1.9l1.5,0.8c1.8,1,3,2,3.7,2.9c0.7,0.9,1.1,2.1,1.1,3.2
		c0.1,1.7-0.7,3.3-2,4.3C68.4,72.8,66.7,73.3,64.5,73.3"/>
	<rect x="81.4" y="52.3" fill="#0B090C" width="2.9" height="20.5"/>
	<polygon fill="#0B090C" points="95.3,72.8 95.3,52.3 98.2,52.3 108.5,68.1 108.5,52.3 111,52.3 111,72.8 108.1,72.8 97.8,57 
		97.8,72.8 	"/>
	<path fill="#0B090C" d="M137.3,72.2c-2.5,0.7-4.7,1.1-6.5,1.1c-3.3,0-5.8-0.9-7.5-2.8c-1.7-1.9-2.6-4.5-2.6-8c0-3.4,0.9-6,2.6-7.9
		c1.8-1.9,4.2-2.8,7.4-2.8c2.2,0,4.4,0.3,6.5,0.9v2.7c-2.8-1-5-1.4-6.5-1.4c-2.2,0-3.9,0.8-5.2,2.3c-1.2,1.5-1.8,3.6-1.8,6.4
		c0,2.7,0.7,4.8,2,6.3c1.3,1.5,3.1,2.3,5.5,2.3c1.1,0,2.1-0.2,3.1-0.5v-6.7h2.9L137.3,72.2z"/>
	<polygon fill="#0B090C" points="2.2,83.4 2.2,78.6 4.9,78.6 4.9,79.1 2.9,79.1 2.9,80.6 4.6,80.6 4.6,81.2 2.9,81.2 2.9,82.9 
		5,82.9 5,83.4 	"/>
	<path fill="#0B090C" d="M5.8,83.4v-4.9h1.5c0.4,0,0.8,0.1,1.1,0.3c0.3,0.2,0.4,0.6,0.4,0.9c0,0.6-0.4,1.2-1,1.4l1.6,2.3H8.5
		l-1.4-2.1H6.5v2.1L5.8,83.4z M6.5,80.9h0.2c0.9,0,1.3-0.3,1.3-1c0-0.5-0.4-0.7-1.1-0.7H6.5V80.9z"/>
	<path fill="#0B090C" d="M13.2,83.4l-0.5-1.3h-2.1l-0.5,1.3H9.5l1.9-4.9h0.7l1.9,4.9H13.2z M12.5,81.6l-0.8-2.1l-0.8,2.1H12.5z"/>
	<path fill="#0B090C" d="M15.6,83.5c-0.4,0-0.8-0.1-1.2-0.2v-0.7c0.4,0.2,0.9,0.4,1.3,0.4c0.2,0,0.5-0.1,0.7-0.2
		c0.2-0.1,0.3-0.3,0.2-0.5c0-0.2-0.1-0.4-0.2-0.5c-0.2-0.2-0.4-0.3-0.6-0.4l-0.3-0.2c-0.3-0.2-0.6-0.4-0.9-0.7
		c-0.2-0.2-0.3-0.5-0.3-0.7c0-0.4,0.1-0.7,0.4-0.9c0.3-0.2,0.7-0.4,1-0.4c0.4,0,0.8,0.1,1.2,0.2v0.6c-0.4-0.2-0.7-0.3-1.1-0.3
		c-0.2,0-0.4,0.1-0.6,0.2c-0.1,0.1-0.2,0.3-0.2,0.5c0,0.2,0.1,0.3,0.2,0.4c0.2,0.2,0.4,0.3,0.6,0.4l0.3,0.2c0.3,0.2,0.6,0.4,0.9,0.7
		c0.2,0.2,0.3,0.5,0.2,0.8c0,0.4-0.2,0.8-0.5,1C16.5,83.4,16.1,83.6,15.6,83.5"/>
	<polygon fill="#0B090C" points="18.3,83.4 18.3,78.6 21,78.6 21,79.1 19,79.1 19,80.6 20.7,80.6 20.7,81.2 19,81.2 19,82.9 
		21.2,82.9 21.2,83.4 	"/>
	<polygon fill="#0B090C" points="24.7,83.4 23.4,78.6 24.1,78.6 25.1,82.4 26,78.6 26.7,78.6 27.5,82.4 28.6,78.6 29.2,78.6 
		27.8,83.4 27.1,83.4 26.2,79.7 25.4,83.4 	"/>
	<path fill="#0B090C" d="M33,83.4l-0.5-1.3h-2.1l-0.5,1.3h-0.6l1.9-4.9h0.7l1.9,4.9H33z M32.3,81.6l-0.8-2.1l-0.8,2.1H32.3z"/>
	<path fill="#0B090C" d="M35.4,83.5c-0.4,0-0.8-0.1-1.2-0.2v-0.7c0.4,0.2,0.9,0.4,1.3,0.4c0.2,0,0.5-0.1,0.7-0.2
		c0.2-0.1,0.3-0.3,0.2-0.5c0-0.2-0.1-0.4-0.2-0.5c-0.2-0.2-0.4-0.3-0.6-0.4l-0.3-0.2c-0.3-0.2-0.6-0.4-0.9-0.7
		c-0.2-0.2-0.3-0.5-0.3-0.7c0-0.4,0.1-0.7,0.4-0.9c0.3-0.2,0.7-0.4,1-0.4c0.4,0,0.8,0.1,1.2,0.2v0.6C36.4,79.1,36,79,35.6,79
		c-0.2,0-0.4,0.1-0.6,0.2c-0.1,0.1-0.2,0.3-0.2,0.5c0,0.2,0.1,0.3,0.2,0.4c0.2,0.2,0.4,0.3,0.6,0.4l0.3,0.2c0.3,0.2,0.6,0.4,0.9,0.7
		c0.2,0.2,0.3,0.5,0.2,0.8c0,0.4-0.2,0.8-0.5,1C36.3,83.4,35.8,83.6,35.4,83.5"/>
	<polygon fill="#0B090C" points="39.2,83.4 39.2,79.1 37.5,79.1 37.5,78.6 41.6,78.6 41.6,79.1 39.9,79.1 39.9,83.4 	"/>
	<polygon fill="#0B090C" points="42.3,83.4 42.3,78.6 45,78.6 45,79.1 43,79.1 43,80.6 44.7,80.6 44.7,81.2 43,81.2 43,82.9 
		45.1,82.9 45.1,83.4 	"/>
	<polygon fill="#0B090C" points="48.1,83.4 48.1,78.6 50.8,78.6 50.8,79.1 48.7,79.1 48.7,80.7 50.4,80.7 50.4,81.2 48.7,81.2 
		48.7,83.4 	"/>
	<path fill="#0B090C" d="M53.6,83.5c-0.6,0-1.2-0.2-1.6-0.7c-0.8-1.1-0.8-2.6,0-3.7c0.9-0.9,2.4-0.9,3.3,0l0,0
		c0.4,0.5,0.7,1.2,0.6,1.8c0,0.7-0.2,1.3-0.6,1.9C54.9,83.3,54.2,83.6,53.6,83.5 M53.6,83c0.4,0,0.9-0.2,1.1-0.5
		c0.3-0.4,0.4-1,0.4-1.5c0-0.5-0.1-1-0.4-1.5c-0.5-0.6-1.4-0.7-2.1-0.2l-0.2,0.2c-0.3,0.4-0.4,1-0.4,1.5c0,0.5,0.1,1.1,0.4,1.5
		C52.7,82.8,53.2,83,53.6,83L53.6,83z"/>
	<path fill="#0B090C" d="M57.8,83.5c-0.4,0-0.8-0.1-1.2-0.2v-0.7c0.4,0.2,0.9,0.4,1.3,0.4c0.2,0,0.5-0.1,0.7-0.2
		c0.2-0.1,0.3-0.3,0.2-0.5c0-0.2-0.1-0.4-0.2-0.5c-0.2-0.2-0.4-0.3-0.6-0.4l-0.3-0.2c-0.3-0.2-0.6-0.4-0.9-0.7
		c-0.2-0.2-0.3-0.5-0.3-0.7c0-0.4,0.1-0.7,0.4-0.9c0.3-0.2,0.7-0.4,1-0.4c0.4,0,0.8,0.1,1.2,0.2v0.6c-0.4-0.2-0.7-0.3-1.1-0.3
		c-0.2,0-0.4,0.1-0.6,0.2c-0.1,0.1-0.2,0.3-0.2,0.5c0,0.2,0.1,0.3,0.2,0.4c0.2,0.2,0.4,0.3,0.6,0.4l0.3,0.2c0.3,0.2,0.6,0.4,0.9,0.7
		c0.2,0.2,0.3,0.5,0.2,0.8c0,0.4-0.2,0.8-0.5,1C58.7,83.4,58.3,83.6,57.8,83.5"/>
	<polygon fill="#0B090C" points="61.6,83.4 61.6,79.1 59.9,79.1 59.9,78.6 64,78.6 64,79.1 62.3,79.1 62.3,83.4 	"/>
	<polygon fill="#0B090C" points="64.7,83.4 64.7,78.6 67.4,78.6 67.4,79.1 65.4,79.1 65.4,80.6 67.1,80.6 67.1,81.2 65.4,81.2 
		65.4,82.9 67.6,82.9 67.6,83.4 	"/>
	<path fill="#0B090C" d="M68.4,83.4v-4.9h1.5c0.4,0,0.8,0.1,1.1,0.3c0.3,0.2,0.4,0.6,0.4,0.9c0,0.6-0.4,1.2-1,1.4l1.6,2.3h-0.8
		l-1.4-2.1H69v2.1L68.4,83.4z M69,80.9h0.2c0.9,0,1.3-0.3,1.3-1c0-0.5-0.4-0.7-1.1-0.7H69L69,80.9z"/>
	<rect x="72.6" y="78.6" fill="#0B090C" width="0.7" height="4.9"/>
	<polygon fill="#0B090C" points="74.5,83.4 74.5,78.6 75.2,78.6 77.7,82.3 77.7,78.6 78.2,78.6 78.2,83.4 77.6,83.4 75.1,79.7 
		75.1,83.4 	"/>
	<path fill="#0B090C" d="M83.1,83.3c-0.5,0.2-1,0.2-1.5,0.3c-0.7,0-1.3-0.2-1.8-0.7c-0.4-0.4-0.6-1.1-0.6-1.9c0-0.7,0.2-1.4,0.6-1.9
		c0.5-0.5,1.1-0.7,1.8-0.7c0.5,0,1,0.1,1.5,0.2v0.6c-0.5-0.2-1-0.3-1.5-0.3c-0.5,0-0.9,0.2-1.2,0.5c-0.3,0.4-0.5,1-0.4,1.5
		c0,0.5,0.1,1.1,0.5,1.5c0.3,0.4,0.8,0.6,1.3,0.5c0.3,0,0.5,0,0.7-0.1v-1.6h0.7L83.1,83.3z"/>
	<polygon fill="#0B090C" points="86.5,83.4 86.5,78.6 89.2,78.6 89.2,79.1 87.2,79.1 87.2,80.6 88.9,80.6 88.9,81.2 87.2,81.2 
		87.2,82.9 89.3,82.9 89.3,83.4 	"/>
	<polygon fill="#0B090C" points="90.1,83.4 90.1,78.6 92.8,78.6 92.8,79.1 90.8,79.1 90.8,80.7 92.5,80.7 92.5,81.2 90.8,81.2 
		90.8,83.4 	"/>
	<polygon fill="#0B090C" points="93.7,83.4 93.7,78.6 96.4,78.6 96.4,79.1 94.4,79.1 94.4,80.7 96.1,80.7 96.1,81.2 94.4,81.2 
		94.4,83.4 	"/>
	<rect x="97.3" y="78.6" fill="#0B090C" width="0.7" height="4.9"/>
	<path fill="#0B090C" d="M101.3,83.5c-0.6,0-1.3-0.2-1.7-0.7C99.2,82.4,99,81.8,99,81c0-0.7,0.2-1.4,0.6-1.9
		c0.5-0.5,1.1-0.7,1.8-0.7c0.5,0,1,0.1,1.5,0.2v0.6c-0.5-0.2-1-0.3-1.5-0.3c-0.5,0-0.9,0.2-1.2,0.5c-0.3,0.4-0.5,1-0.4,1.5
		c0,0.5,0.1,1,0.5,1.5c0.3,0.4,0.8,0.6,1.3,0.5c0.5,0,1-0.2,1.5-0.4v0.6C102.4,83.4,101.9,83.6,101.3,83.5"/>
	<rect x="103.9" y="78.6" fill="#0B090C" width="0.7" height="4.9"/>
	<polygon fill="#0B090C" points="105.8,83.4 105.8,78.6 108.5,78.6 108.5,79.1 106.5,79.1 106.5,80.6 108.2,80.6 108.2,81.2 
		106.5,81.2 106.5,82.9 108.7,82.9 108.7,83.4 	"/>
	<polygon fill="#0B090C" points="109.5,83.4 109.5,78.6 110.1,78.6 112.6,82.3 112.6,78.6 113.2,78.6 113.2,83.4 112.5,83.4 
		110.1,79.7 110.1,83.4 	"/>
	<path fill="#0B090C" d="M116.5,83.5c-0.6,0-1.3-0.2-1.7-0.7c-0.4-0.4-0.6-1.1-0.6-1.9c0-0.7,0.2-1.4,0.6-1.9
		c0.5-0.5,1.1-0.7,1.8-0.7c0.5,0,1,0.1,1.5,0.2v0.6c-0.5-0.2-1-0.3-1.5-0.3c-0.5,0-0.9,0.2-1.2,0.5c-0.3,0.4-0.5,1-0.4,1.5
		c0,0.5,0.1,1,0.5,1.5c0.3,0.4,0.8,0.6,1.3,0.5c0.5,0,1-0.2,1.5-0.4v0.6C117.6,83.4,117,83.6,116.5,83.5"/>
	<polygon fill="#0B090C" points="120.1,83.4 120.1,81.4 118.5,78.6 119.3,78.6 120.5,80.8 121.9,78.6 122.5,78.6 120.8,81.4 
		120.8,83.4 	"/>
	<path fill="#0B090C" d="M125.4,83.4v-4.9h1.5c0.4,0,0.8,0.1,1.1,0.3c0.3,0.2,0.4,0.6,0.4,0.9c0,0.6-0.4,1.2-1,1.4l1.6,2.3h-0.8
		l-1.4-2.1h-0.6v2.1L125.4,83.4z M126,80.9h0.2c0.9,0,1.3-0.3,1.3-1c0-0.5-0.4-0.7-1.1-0.7H126L126,80.9z"/>
	<rect x="129.6" y="78.6" fill="#0B090C" width="0.7" height="4.9"/>
	<path fill="#0B090C" d="M132.5,83.5c-0.4,0-0.8-0.1-1.2-0.2v-0.7c0.4,0.2,0.9,0.4,1.3,0.4c0.2,0,0.5-0.1,0.7-0.2
		c0.2-0.1,0.3-0.3,0.2-0.5c0-0.2-0.1-0.4-0.2-0.5c-0.2-0.2-0.4-0.3-0.6-0.4l-0.3-0.2c-0.3-0.2-0.6-0.4-0.9-0.7
		c-0.2-0.2-0.3-0.5-0.3-0.7c0-0.4,0.1-0.7,0.4-0.9c0.3-0.2,0.7-0.4,1-0.4c0.4,0,0.8,0.1,1.2,0.2v0.6c-0.4-0.2-0.7-0.3-1.1-0.3
		c-0.2,0-0.4,0.1-0.6,0.2c-0.1,0.1-0.2,0.3-0.2,0.5c0,0.2,0.1,0.3,0.2,0.4c0.2,0.2,0.4,0.3,0.6,0.4l0.3,0.2c0.3,0.2,0.6,0.4,0.9,0.7
		c0.2,0.2,0.3,0.5,0.2,0.8c0,0.4-0.2,0.8-0.5,1C133.4,83.4,132.9,83.6,132.5,83.5"/>
	<polygon fill="#0B090C" points="135.2,83.4 135.2,78.6 137.9,78.6 137.9,79.1 135.8,79.1 135.8,80.6 137.5,80.6 137.5,81.2 
		135.8,81.2 135.8,82.9 138,82.9 138,83.4 	"/>
	<rect x="42.3" y="38.6" fill="#0B090C" width="8.5" height="3"/>
	<rect x="55.6" y="33.9" fill="#0B090C" width="8.5" height="7.8"/>
	<rect x="68.9" y="27.9" fill="#0B090C" width="8.5" height="13.7"/>
	<rect x="82.3" y="21.3" fill="#0B090C" width="8.5" height="20.3"/>
	<polygon fill="#EBCC73" points="97.9,8.5 97.9,8.3 98.8,5 99.7,1.4 96.2,2.4 92.9,3.3 92.7,3.3 94,4.7 89.1,9.6 87,11.7 86.3,12.4 
		86,12.7 85.9,12.7 85.9,12.8 85.9,12.8 85.8,12.8 85.7,12.7 80.6,11.5 74.3,10 73.2,9.7 72.9,9.6 72.8,9.6 72.7,9.6 72.7,9.6 
		72.6,9.6 72.3,10 70.8,11.7 68.8,14.1 59.2,25.4 59.2,25.4 59.1,25.4 59,25.4 58.7,25.3 58.2,25.2 56.5,24.7 52.7,23.7 48.6,22.6 
		47.2,22.2 46.4,22 46.1,21.9 46,21.9 46,21.9 46,21.9 45.9,22 45.8,22.1 44,24.4 37.4,32.6 40.2,34.9 46.6,26.8 47.3,26 47.3,26 
		47.4,26 47.5,26 47.7,26.1 48.2,26.2 51.8,27.2 55.6,28.2 57.7,28.8 59.1,29.2 59.9,29.4 60.2,29.5 60.4,29.5 60.4,29.5 60.4,29.5 
		60.5,29.5 60.5,29.4 71.5,16.4 73.3,14.3 73.8,13.7 74,13.6 74.1,13.6 74.5,13.7 79.8,15 86.4,16.6 86.9,16.7 87,16.7 87,16.7 
		87.1,16.6 87.3,16.4 88.1,15.6 89.5,14.2 91.6,12.1 96.5,7.2 	"/>
	
		<rect x="37.1" y="33.1" transform="matrix(0.6235 -0.7818 0.7818 0.6235 -12.961 42.7953)" fill="#EBCC73" width="1.6" height="3.4"/>
	<rect x="36.4" y="34.5" transform="matrix(0.6233 -0.782 0.782 0.6233 -14.481 42.458)" fill="#EBCC73" width="0.9" height="3.4"/>
	
		<rect x="35.6" y="35.7" transform="matrix(0.6241 -0.7813 0.7813 0.6241 -15.7 42.1364)" fill="#EBCC73" width="0.6" height="3.4"/>
	<path fill="#4B7F47" d="M99.8,27.5c-0.2,0-0.4-0.2-0.4-0.4c0-2.7,2.2-4.9,4.9-4.9c0.2,0,0.4,0.2,0.4,0.4
		C104.7,25.3,102.5,27.5,99.8,27.5"/>
	<path fill="#62A063" d="M99.8,27.5c-0.2,0-0.4-0.2-0.4-0.4l0.1-0.3l1.8-1.8c0.2-0.2,0.5-0.2,0.6,0c0.2,0.2,0.2,0.4,0,0.6l-1.8,1.8
		L99.8,27.5"/>
	<path fill="#4B7F47" d="M99.8,27.5c-2.7,0-4.9-2.2-4.9-4.9c0-0.2,0.2-0.4,0.4-0.4c2.7,0,4.9,2.2,4.9,4.9
		C100.3,27.3,100.1,27.5,99.8,27.5"/>
	<path fill="#62A063" d="M99.8,27.5l-0.3-0.1l-1.8-1.8c-0.2-0.2-0.2-0.5,0-0.6c0.2-0.2,0.5-0.2,0.6,0l1.8,1.8c0.2,0.2,0.2,0.5,0,0.6
		L99.8,27.5"/>
	<path fill="#62A063" d="M99.8,39.7c-0.2,0-0.4-0.4-0.4-0.9V21.8c0-0.5,0.2-0.9,0.4-0.9c0.2,0,0.4,0.4,0.4,0.9v16.9
		C100.3,39.3,100.1,39.7,99.8,39.7"/>
	<path fill="#E9C865" d="M105.6,15.6c0,3.2-2.6,5.8-5.8,5.8c-3.2,0-5.8-2.6-5.8-5.8c0-3.2,2.6-5.8,5.8-5.8
		C103,9.8,105.6,12.4,105.6,15.6L105.6,15.6"/>
	<path fill="#8B8C9B" d="M102,18.5l-0.2-0.7l-0.1-0.1h-0.1h0h-0.1l-0.1,0l-0.1,0l-0.1,0l-0.1,0H101c-0.8,0-1.4-0.4-1.7-1.1h1.7
		l0.1-0.1l0.1-0.5l0-0.1l-0.1-0.1H99c0-0.2,0-0.3,0-0.5h2.2l0.1-0.1v0l0.1-0.5l-0.1-0.2l0,0h-2.1c0.1-0.3,0.4-0.6,0.7-0.8
		c0.3-0.2,0.7-0.3,1-0.3h0.1h0.1h0.1l0.1,0l0.1,0h0.1h0h0.1l0.1,0l0.2-0.7v-0.1l-0.1-0.1c-0.3-0.1-0.6-0.1-0.9-0.1
		c-0.6,0-1.3,0.2-1.8,0.6c-0.5,0.4-0.9,0.9-1.1,1.5h-0.5l-0.1,0.1v0v0.5l0.1,0.1h0h0.3v0.5h-0.3L97.5,16v0.5l0.1,0.1H98
		c0.2,0.6,0.5,1.2,1.1,1.6c0.5,0.4,1.2,0.6,1.8,0.6h0.2h0.2l0.1,0l0.1,0l0.1,0l0.1,0l0.1,0l0,0h0l0.1-0.1L102,18.5L102,18.5z"/>
	<rect x="95.6" y="29.4" fill="#0B090C" width="8.5" height="12.2"/>
</g>
</svg>
