<?xml version="1.0" encoding="UTF-8"?>
<svg width="12px" height="12px" viewBox="0 0 12 12" version="1.1" xmlns="http://www.w3.org/2000/svg" xmlns:xlink="http://www.w3.org/1999/xlink">
    <!-- Generator: Sketch 57.1 (83088) - https://sketch.com -->
    <title>facebook</title>
    <desc>Created with Sketch.</desc>
    <g id="mobile" stroke="none" stroke-width="1" fill="none" fill-rule="evenodd">
        <g id="blog-list" transform="translate(-29.000000, -1007.000000)" fill="#22313F" fill-rule="nonzero">
            <g id="Footer" transform="translate(29.000000, 1007.000000)">
                <g id="social_media">
                    <path d="M10.3829348,0 L1.61703585,0 C0.723989383,0 0,0.723954715 0,1.61702398 L0,10.3829173 C0,11.2759866 0.723960028,12 1.61703585,12 L5.94033538,12 L5.94770356,7.7118115 L4.83364116,7.7118115 C4.68886089,7.7118115 4.57135169,7.59474349 4.57079394,7.44996428 L4.56545128,6.06772214 C4.56489353,5.92215036 4.68275499,5.80384943 4.82832785,5.80384943 L5.94036474,5.80384943 L5.94036474,4.46825249 C5.94036474,2.91830484 6.8869846,2.07434661 8.26964786,2.07434661 L9.40422961,2.07434661 C9.54939149,2.07434661 9.66710618,2.19203108 9.66710618,2.33722125 L9.66710618,3.50273491 C9.66710618,3.64786638 9.54947956,3.76552149 9.40437638,3.76560956 L8.70809839,3.76593246 C7.95616278,3.76593246 7.81056056,4.12324237 7.81056056,4.64761197 L7.81056056,5.80387878 L9.46282276,5.80387878 C9.62025515,5.80387878 9.74240249,5.94134857 9.72384995,6.09769367 L9.5600181,7.47993581 C9.54434238,7.61220975 9.43217584,7.71187021 9.29899091,7.71187021 L7.81792874,7.71187021 L7.81056056,12 L10.3829935,12 C11.27604,12 12,11.2760453 12,10.3830054 L12,1.61702398 C12,0.723954715 11.2760106,0 10.3829348,0 Z" id="facebook"></path>
                </g>
            </g>
        </g>
    </g>
</svg>