<?xml version="1.0" encoding="UTF-8"?>
<svg width="19px" height="12px" viewBox="0 0 19 12" version="1.1" xmlns="http://www.w3.org/2000/svg" xmlns:xlink="http://www.w3.org/1999/xlink">
    <!-- Generator: Sketch 57.1 (83088) - https://sketch.com -->
    <title>freecodecamp_light</title>
    <desc>Created with Sketch.</desc>
    <g id="mobile" stroke="none" stroke-width="1" fill="none" fill-rule="evenodd">
        <g id="work" transform="translate(-273.000000, -850.000000)" fill="#F1F4FA" fill-rule="nonzero">
            <g id="Footer" transform="translate(29.000000, 850.000000)">
                <g id="social_media">
                    <g id="freecodecamp_light" transform="translate(244.000000, 0.000000)">
                        <path d="M0.0285363367,5.71241808 C0.0285363367,3.88337739 0.677204548,2.24686729 1.98436927,0.793261257 C2.45612797,0.273428639 2.84926022,0.00388579904 3.11462449,0.00388579904 C3.20307925,0.00388579904 3.291534,0.032765389 3.37998876,0.0905245691 C3.43895859,0.148283749 3.49792843,0.234922519 3.49792843,0.321561289 C3.49792843,0.465959238 3.32101892,0.668116367 2.99668482,0.995418389 C1.63055025,2.27574687 0.942568814,3.84487127 0.942568814,5.74129769 C0.942568814,7.8398812 1.66003517,9.52452394 3.05565465,10.833732 C3.35050384,11.0936483 3.46844351,11.2958055 3.46844351,11.469083 C3.46844351,11.5557218 3.40947368,11.6423605 3.35050384,11.7289993 C3.291534,11.7867585 3.17359433,11.8445177 3.08513957,11.8445177 C2.76080546,11.8445177 2.30870338,11.469083 1.71900501,10.7374667 C0.569093178,9.35124641 0.0285363367,7.69548327 0.0285363367,5.71241808 L0.0285363367,5.71241808 L0.0285363367,5.71241808 Z" id="path29"></path>
                        <path d="M18.0339933,6.17449154 C18.0339933,8.00353221 17.3853251,9.64004234 16.0781604,11.0936483 C15.6064017,11.613481 15.2132694,11.8830238 14.9479052,11.8830238 C14.8594504,11.8830238 14.7709957,11.8541442 14.6825409,11.796385 C14.6235711,11.7386259 14.5646012,11.6231075 14.5646012,11.5364687 C14.5646012,11.3920708 14.7415107,11.1899136 15.0658449,10.9011178 C16.4319794,9.62078925 17.1199608,8.05166486 17.1199608,6.15523845 C17.1199608,4.05665494 16.4024945,2.37201218 15.006875,1.0628041 C14.7120258,0.802887788 14.5940862,0.600730659 14.5940862,0.427453119 C14.5940862,0.340814349 14.653056,0.254175579 14.7120258,0.167536809 C14.7709957,0.109777629 14.8889353,0.0520184491 14.9773901,0.0520184491 C15.2722393,0.0520184491 15.7538263,0.427453119 16.3435246,1.1590694 C17.4344666,2.54528972 18.0339933,4.20105286 18.0339933,6.17449154 L18.0339933,6.17449154 L18.0339933,6.17449154 Z" id="path31"></path>
                        <g id="g33" transform="translate(4.374642, 10.442298)">
                            <path d="M8.78261105,1.0397137 L0.543537526,1.0397137 C0.248406535,1.0397137 0.0270582918,0.822909767 0.0270582918,0.533837848 C0.0270582918,0.244765928 0.248406535,0.0279619884 0.543537526,0.0279619884 L8.78261105,0.0279619884 C9.07774204,0.0279619884 9.29909029,0.244765928 9.29909029,0.533837848 C9.22530751,0.822909767 9.07774204,1.0397137 8.78261105,1.0397137 L8.78261105,1.0397137 Z" id="path37"></path>
                        </g>
                        <path d="M7.28182633,0.995418389 C7.28182633,0.995418389 7.96980775,1.45749183 7.96980775,2.30462647 C7.96980775,3.7582325 5.94517666,5.35623649 5.94517666,6.86760167 C5.94517666,8.49448523 7.22285649,9.54377703 8.44156644,9.86145253 C8.61847595,9.89033209 8.67744579,9.71705456 8.47105138,9.65929538 C7.96980775,9.54377703 7.4292509,8.89879952 7.4292509,7.91689346 C7.4292509,6.98312006 8.35311171,6.63656496 8.70693073,6.20337111 C9.09023469,5.74129769 9.00177991,5.15407935 8.76590056,4.98080182 C8.53002122,4.80752425 8.70693073,4.57648754 9.09023469,4.86528346 C9.47353861,5.12519974 9.80770101,5.6546589 9.67993306,6.11673236 C9.53250845,6.72320374 9.73890289,7.07938533 10.063237,7.13714451 C10.3875711,7.19490368 10.7512184,7.02162615 10.7119052,6.73283026 C10.672592,6.44403438 10.5055108,6.12635888 10.5939655,6.12635888 C10.8298449,6.12635888 11.3114319,6.67507109 11.3114319,7.57996492 C11.3114319,8.48485871 10.5644806,9.09133009 10.3286013,9.32236684 C10.1811767,9.46676477 10.3580862,9.64004234 10.5644806,9.55340355 C10.6529353,9.52452394 10.8593298,9.40900559 10.9772695,9.32236684 C11.5669678,8.91805256 12.4908286,8.07091795 12.4908286,6.53067312 C12.4908286,4.90378955 11.8716453,4.17217329 11.2131488,3.5657019 C10.5644806,2.9592305 10.4072277,3.10362846 10.5939655,3.42130395 C11.124694,4.32619778 10.80036,4.64387324 10.417056,4.64387324 C9.9452973,4.64387324 9.9452973,3.62346108 9.72907458,2.84371215 C9.34577062,1.10131022 7.7044435,0.802887788 7.40959431,0.774008199 C7.19337155,0.677742898 6.91817899,0.851020438 7.28182633,0.995418389 L7.28182633,0.995418389 Z" id="Shape"></path>
                    </g>
                </g>
            </g>
        </g>
    </g>
</svg>