<?xml version="1.0" encoding="UTF-8"?>
<svg width="13px" height="12px" viewBox="0 0 13 12" version="1.1" xmlns="http://www.w3.org/2000/svg" xmlns:xlink="http://www.w3.org/1999/xlink">
    <!-- Generator: Sketch 57.1 (83088) - https://sketch.com -->
    <title>github_light</title>
    <desc>Created with Sketch.</desc>
    <g id="mobile" stroke="none" stroke-width="1" fill="none" fill-rule="evenodd">
        <g id="work" transform="translate(-213.000000, -850.000000)" fill="#F1F4FA" fill-rule="nonzero">
            <g id="Footer" transform="translate(29.000000, 850.000000)">
                <g id="social_media">
                    <path d="M196.002281,3.06320565 C195.452291,2.12086208 194.706265,1.37480736 193.764005,0.824873195 C192.821605,0.274910983 191.792786,0 190.676817,0 C189.560989,0 188.531833,0.274995131 187.58963,0.824873195 C186.647286,1.37477931 185.901287,2.12086208 185.351297,3.06320565 C184.801391,4.00552118 184.526424,5.03453702 184.526424,6.15022514 C184.526424,7.49041969 184.917431,8.69555696 185.699641,9.76594549 C186.481767,10.8364182 187.492158,11.5771435 188.73073,11.9882057 C188.874904,12.0149647 188.981631,11.9961437 189.051025,11.9322194 C189.120447,11.8682109 189.155116,11.7880461 189.155116,11.6920614 C189.155116,11.6760453 189.153741,11.5319561 189.151077,11.2596257 C189.148328,10.9872952 189.147038,10.7497179 189.147038,10.5470057 L188.962838,10.5788697 C188.845396,10.6003835 188.697239,10.6094995 188.518369,10.606919 C188.339583,10.6044226 188.153981,10.5856857 187.961815,10.5508485 C187.769566,10.5163198 187.590751,10.4362391 187.425233,10.3107747 C187.259798,10.1853103 187.142356,10.0210817 187.072934,9.81834154 L186.992853,9.63405778 C186.939475,9.51137024 186.85544,9.37507879 186.740634,9.22568833 C186.625828,9.07615762 186.509732,8.97478753 186.39229,8.92140975 L186.336219,8.88127123 C186.298858,8.85459637 186.264189,8.82242385 186.232129,8.78509026 C186.200096,8.74775667 186.176114,8.71039503 186.160098,8.67297729 C186.144054,8.6355315 186.157349,8.60481754 186.200124,8.58072321 C186.242899,8.55662888 186.320203,8.54493233 186.432372,8.54493233 L186.592478,8.56885837 C186.699261,8.59025997 186.831345,8.65418427 186.988898,8.76102398 C187.146367,8.86777953 187.275814,9.00656736 187.377268,9.17733137 C187.500124,9.39628404 187.64814,9.56312116 187.821737,9.67792685 C187.995194,9.79273255 188.170081,9.85003723 188.346231,9.85003723 C188.52238,9.85003723 188.67452,9.83668577 188.802705,9.81012311 C188.93075,9.78342019 189.050885,9.74328167 189.163054,9.68993195 C189.211102,9.33207925 189.341924,9.05716826 189.555407,8.86500265 C189.251129,8.83302647 188.977564,8.78486586 188.734573,8.72082936 C188.491722,8.65670871 188.240765,8.55264588 187.981871,8.40836039 C187.722836,8.26427125 187.50795,8.0853449 187.337158,7.87188988 C187.166338,7.65832267 187.026148,7.37794208 186.916783,7.03100055 C186.807363,6.68391877 186.752639,6.28354337 186.752639,5.82976213 C186.752639,5.18364699 186.96357,4.63382503 187.385347,4.17998769 C187.187768,3.69423028 187.20642,3.14968158 187.441361,2.54639769 C187.596193,2.49829318 187.825804,2.5343926 188.130083,2.65447156 C188.434418,2.77460662 188.657241,2.87751943 188.798778,2.96284533 C188.940315,3.04814319 189.053718,3.12042618 189.139156,3.17904917 C189.635768,3.04028939 190.148257,2.97089548 190.676761,2.97089548 C191.205266,2.97089548 191.717866,3.04028939 192.214507,3.17904917 L192.518813,2.98693966 C192.726911,2.85875446 192.972651,2.74128408 193.255444,2.63450047 C193.538405,2.52777297 193.754777,2.49837732 193.904336,2.54648184 C194.144494,3.14979378 194.165895,3.69431443 193.96826,4.18007184 C194.390009,4.63390917 194.601024,5.18387139 194.601024,5.82984628 C194.601024,6.28362751 194.546103,6.68526514 194.436851,7.0350116 C194.327459,7.38481415 194.186063,7.66491425 194.012606,7.87590093 C193.838953,8.08685956 193.622693,8.26438344 193.363798,8.40844454 C193.104847,8.55261783 192.853806,8.65668066 192.610955,8.72080131 C192.367992,8.78492196 192.094428,8.83311062 191.790149,8.8651429 C192.067669,9.10530083 192.206457,9.48438683 192.206457,10.0022326 L192.206457,11.691837 C192.206457,11.7878217 192.239835,11.8679585 192.306649,11.931995 C192.373378,11.9959193 192.478759,12.0147403 192.622932,11.9879533 C193.861673,11.5769472 194.872064,10.8361938 195.654162,9.7657211 C196.436176,8.69533256 196.827323,7.4901953 196.827323,6.15000075 C196.827042,5.03445288 196.551935,4.00552118 196.002281,3.06320565 Z" id="github_light"></path>
                </g>
            </g>
        </g>
    </g>
</svg>