<?xml version="1.0" encoding="UTF-8"?>
<svg width="13px" height="12px" viewBox="0 0 13 12" version="1.1" xmlns="http://www.w3.org/2000/svg" xmlns:xlink="http://www.w3.org/1999/xlink">
    <!-- Generator: Sketch 57.1 (83088) - https://sketch.com -->
    <title>linkedIn</title>
    <desc>Created with Sketch.</desc>
    <g id="mobile" stroke="none" stroke-width="1" fill="none" fill-rule="evenodd">
        <g id="blog-list" transform="translate(-120.000000, -1007.000000)" fill="#22313F" fill-rule="nonzero">
            <g id="Footer" transform="translate(29.000000, 1007.000000)">
                <g id="social_media">
                    <path d="M103.532114,0 L103.532114,12 L91.5321142,12 L91.5321142,0 L103.532114,0 Z M99.8123672,4.45689233 L99.5103469,4.45689233 C98.9341649,4.45689233 98.4251278,4.74437771 98.1189472,5.18379483 C98.0855591,5.2316915 98.0546461,5.28143137 98.0262609,5.33277745 C98.0164394,5.3313029 98.0106201,5.33053929 98.0104885,5.3308026 L98.0104885,4.71417569 C98.0104885,4.65074353 97.9590634,4.59929213 97.8956049,4.59929213 L96.4264488,4.59929213 C96.3630166,4.59929213 96.3115652,4.6507172 96.3115652,4.71417569 L96.3115652,10.0614617 C96.3115652,10.1248939 96.362964,10.1763189 96.4263961,10.1763453 L97.9275711,10.1767139 C97.9910296,10.1767402 98.042481,10.1252888 98.042481,10.0618303 L98.042481,6.97256057 C98.042481,6.43856134 98.4683902,5.9951682 99.0023631,5.98913833 C99.2749449,5.98605756 99.5220644,6.09527989 99.7001695,6.27349028 C99.875931,6.44914654 99.9846004,6.69202666 99.9846004,6.96018485 L99.9846004,10.0622253 C99.9846004,10.1256575 100.036025,10.1770825 100.099431,10.1771089 L101.604319,10.1774775 C101.667778,10.1774775 101.719282,10.1260524 101.719282,10.0625939 L101.719282,6.36380672 C101.719282,5.31065914 100.865541,4.45689233 99.8123672,4.45689233 Z M94.9402036,4.59931846 L93.7626405,4.59931846 C93.6316459,4.59931846 93.521912,4.69033885 93.4932329,4.81258559 L93.4859246,4.87603433 L93.4859246,9.89957672 C93.4859246,10.0305713 93.576945,10.1403052 93.6991918,10.1689844 L93.7626405,10.1762926 L94.9402036,10.1762926 C95.0711982,10.1762926 95.1809127,10.0852722 95.209603,9.96304204 L95.2169195,9.89960306 L95.2169195,4.87603433 C95.2169195,4.72320733 95.0930306,4.59931846 94.9402036,4.59931846 Z M94.3562802,1.8225222 C93.8000047,1.8221012 93.3449467,2.27289344 93.3449467,2.82545625 C93.3448414,3.39518707 93.8147765,3.84181897 94.349513,3.83099679 C94.8767188,3.84355684 95.3566861,3.40764179 95.358005,2.82927429 C95.3591876,2.27692213 94.9058939,1.82297013 94.3562802,1.8225222 Z" id="linkedIn"></path>
                </g>
            </g>
        </g>
    </g>
</svg>