<svg xmlns="http://www.w3.org/2000/svg" viewBox="0 0 200 61.51">
    <title>logo</title>
    <path d="M58.87,28.06,33.56,2.74,30.84,0,28.12,2.75,2.81,28.06.09,30.78,2.81,33.5,28.13,58.81l2.72,2.73,2.72-2.73L58.88,33.5l2.72-2.72Zm-28-22.59L54.23,28.84H7.46Zm0,50.62L7.46,32.7H54.23Z"
          transform="translate(-0.09 -0.02)" style="fill:#22313f"/>
    <path d="M42,18.18c-2.39-.48-6.06-1-7.7-.69s-2.12.49-2.31.84-.82.38-1.11.39-.92,0-1.11-.39-1-.55-2.67-.77a25.83,25.83,0,0,0-7.34.62.35.35,0,0,0-.28.36,11.34,11.34,0,0,0,.18,1.83.36.36,0,0,0,.37.29l.62,0s.22,1.62.53,3,1.32,1.83,3.61,1.81,3.32-.05,4.06-1.35,1-2.83,2-2.83,1.25,1.53,2,2.83,1.78,1.32,4.07,1.35,3.26-.35,3.6-1.81.53-3,.53-3l.63,0a.36.36,0,0,0,.37-.29,14.17,14.17,0,0,0,.18-1.83A.36.36,0,0,0,42,18.18Zm-13.3,4.57c-.73,1.77-2.49,1.75-4.46,1.69s-2.05-.87-2.35-1.94-.84-3.27.58-3.7a14.25,14.25,0,0,1,4.94-.19c1.33.15,2.11.71,2.08,1.32A7.31,7.31,0,0,1,28.67,22.75Zm11.15-.25c-.29,1.07-.37,1.88-2.35,1.94s-3.72.08-4.45-1.69a7.31,7.31,0,0,1-.8-2.81c0-.58.76-1.17,2.08-1.32a14.25,14.25,0,0,1,4.94.19c1.42.44.88,2.62.58,3.69Z"
          transform="translate(-0.09 -0.02)" style="fill:#22313f"/>
    <path d="M22.7,43.77v-2a2,2,0,0,0,1.13-.31,1.53,1.53,0,0,0,.53-.87,8.61,8.61,0,0,0,.15-1.9,10.6,10.6,0,0,1,.13-2,2.2,2.2,0,0,1,.52-1,2.23,2.23,0,0,1,1-.59,6.26,6.26,0,0,1,1.73-.2h.43v2a2.65,2.65,0,0,0-1.39.23,1.22,1.22,0,0,0-.3,1,12.58,12.58,0,0,1-.28,3.23,2.66,2.66,0,0,1-1.27,1.52A2.66,2.66,0,0,1,26.25,44a9.6,9.6,0,0,1,.4,3.52,1.33,1.33,0,0,0,.19.83,1.38,1.38,0,0,0,.4.28,4.09,4.09,0,0,0,1.1.09v2H27.9a4.36,4.36,0,0,1-2.26-.41,2.59,2.59,0,0,1-.86-.94,6.93,6.93,0,0,1-.27-2.48A9.11,9.11,0,0,0,24.37,45a1.55,1.55,0,0,0-.53-.9A2.09,2.09,0,0,0,22.7,43.77Z"
          transform="translate(-0.09 -0.02)" style="fill:#22313f"/>
    <path d="M39,41.79v2a2,2,0,0,0-1.13.32,1.46,1.46,0,0,0-.52.86,8.74,8.74,0,0,0-.15,1.91,10.61,10.61,0,0,1-.14,2,2.13,2.13,0,0,1-.51,1,2.33,2.33,0,0,1-1,.59,5.93,5.93,0,0,1-1.73.19h-.44v-2a2.7,2.7,0,0,0,1.4-.22,1.22,1.22,0,0,0,.29-1,12.53,12.53,0,0,1,.28-3.23,2.65,2.65,0,0,1,1.27-1.52,2.66,2.66,0,0,1-1.15-1.24A9.6,9.6,0,0,1,35,38a.92.92,0,0,0-.59-1.11,4.06,4.06,0,0,0-1.1-.09v-2h.44a4.36,4.36,0,0,1,2.26.41,2.51,2.51,0,0,1,.86.94,6.81,6.81,0,0,1,.28,2.48,8.47,8.47,0,0,0,.14,1.88,1.54,1.54,0,0,0,.52.87A2.05,2.05,0,0,0,39,41.79Z"
          transform="translate(-0.09 -0.02)" style="fill:#22313f"/>
    <path d="M29.68,38.84H32V41H29.68Zm0,3.51H32v1.8a2.65,2.65,0,0,1-.41,1.57,3.26,3.26,0,0,1-1.4,1l-.51-.93a2.47,2.47,0,0,0,.85-.58,1.1,1.1,0,0,0,.26-.67H29.68Z"
          transform="translate(-0.09 -0.02)" style="fill:#22313f"/>
    <path d="M90.52,26a3.05,3.05,0,0,1,3.12,3.21,3,3,0,0,1-3.12,3.2H88.4v3.2H87V26Zm0,5a1.82,1.82,0,0,0,0-3.64H88.4V31Z"
          transform="translate(-0.09 -0.02)" style="fill:#22313f"/>
    <path d="M98.53,34.2H103v1.39H97.14V26H103v1.39H98.53v2.71h4.37v1.4H98.53Z" transform="translate(-0.09 -0.02)"
          style="fill:#22313f"/>
    <path d="M110.06,26a4.58,4.58,0,0,1,4.73,4.81,4.57,4.57,0,0,1-4.73,4.79h-3.43V26Zm0,8.21a3.25,3.25,0,0,0,3.35-3.4,3.26,3.26,0,0,0-3.35-3.42H108V34.2Z"
          transform="translate(-0.09 -0.02)" style="fill:#22313f"/>
    <path d="M119.05,30.72h2.18a1.67,1.67,0,1,0,.15-3.34h-2.27v8.21h-1.38V26h3.5A3,3,0,0,1,124.36,29a2.89,2.89,0,0,1-2.5,2.94l3,3.61h-1.77l-3.5-3.6h-.56Z"
          transform="translate(-0.09 -0.02)" style="fill:#22313f"/>
    <path d="M128.49,27.31a4.86,4.86,0,0,1,6.87-.06l.07.06a5,5,0,0,1,0,7,4.87,4.87,0,0,1-6.88.06l-.06-.06a4.94,4.94,0,0,1,0-7Zm5.94,1a3.54,3.54,0,0,0-2.5-1,3.43,3.43,0,0,0-2.46,1,3.51,3.51,0,0,0,0,5h0a3.43,3.43,0,0,0,2.46,1,3.54,3.54,0,0,0,2.5-6Z"
          transform="translate(-0.09 -0.02)" style="fill:#22313f"/>
    <path d="M150.12,27.35a4.64,4.64,0,0,1,3.33-1.42,4.5,4.5,0,0,1,4.48,3.54h-1.38a3.12,3.12,0,0,0-3.1-2.17,3.24,3.24,0,0,0-2.36,1,3.55,3.55,0,0,0,0,4.92A3.31,3.31,0,0,0,156.64,32H158a4.63,4.63,0,0,1-4.55,3.66,4.56,4.56,0,0,1-3.32-1.42,5,5,0,0,1,0-6.88Z"
          transform="translate(-0.09 -0.02)" style="fill:#22313f"/>
    <path d="M161.77,30.72H164a1.67,1.67,0,1,0,.14-3.34h-2.27v8.21h-1.37V26H164A3,3,0,0,1,167.09,29a2.89,2.89,0,0,1-2.5,2.94l3,3.61h-1.8L162.32,32h-.56Z"
          transform="translate(-0.09 -0.02)" style="fill:#22313f"/>
    <path d="M171.19,32.66V25.94h1.4v6.73c0,1.06,1.14,1.58,2.16,1.58s2.14-.53,2.14-1.59V25.94h1.4v6.73c0,1.95-1.89,3-3.54,3S171.19,34.62,171.19,32.66Z"
          transform="translate(-0.09 -0.02)" style="fill:#22313f"/>
    <path d="M182.09,26H190l-6.32,8.36H189V35.6h-8.08l6.32-8.33h-5.14Z" transform="translate(-0.09 -0.02)"
          style="fill:#22313f"/>
    <path d="M194.23,21.26v19H82.71v-19H194.23m5.86-5.86H76.86V46.15H200.09Z" transform="translate(-0.09 -0.02)"
          style="fill:#22313f"/>
</svg>