<svg xmlns="http://www.w3.org/2000/svg" viewBox="0 0 487.67 149.99"><defs><style>.a{fill:#e4f1fe;}</style></defs><title>logo_light</title><path class="a" d="M149.49,68.36,87.77,6.64,81.14,0,74.52,6.65,12.8,68.37,6.17,75l6.63,6.64,61.72,61.72L81.16,150l6.64-6.63,61.72-61.72L156.15,75ZM81.15,13.29l57,57h-114Zm0,123.44-57-57h114Z" transform="translate(-6.17 -0.01)"/><path class="a" d="M108.27,44.28c-5.81-1.16-14.77-2.42-18.76-1.69-4.15.76-5.18,1.19-5.64,2.06s-2,.91-2.7,1-2.24-.08-2.7-1S76.13,43.3,72,42.76c-4.79-.62-12.09.36-17.89,1.52a.89.89,0,0,0-.7.87,29,29,0,0,0,.44,4.46.88.88,0,0,0,.9.72l1.53-.09s.52,3.94,1.29,7.2c.84,3.55,3.2,4.48,8.8,4.42s8.08-.11,9.9-3.28,2.51-6.9,4.92-6.92,3,3.75,4.91,6.92S90.4,61.79,96,61.86s8-.87,8.78-4.42c.77-3.26,1.3-7.2,1.3-7.2l1.52.09a.88.88,0,0,0,.91-.72,27.84,27.84,0,0,0,.43-4.46A.84.84,0,0,0,108.27,44.28ZM75.84,55.42c-1.77,4.31-6,4.27-10.86,4.12s-5-2.11-5.73-4.72-2-8,1.42-9,8.79-.83,12-.46,5.16,1.74,5.08,3.21S77.62,51.12,75.84,55.42Zm27.2-.6c-.71,2.61-.91,4.57-5.73,4.72s-9.08.2-10.85-4.12S84.58,50,84.51,48.57s1.84-2.85,5.08-3.21,8.55-.6,12,.46,2.14,6.38,1.42,9Z" transform="translate(-6.17 -0.01)"/><path class="a" d="M61.3,106.68v-4.83a4.87,4.87,0,0,0,2.75-.76A3.69,3.69,0,0,0,65.34,99a21.31,21.31,0,0,0,.36-4.65A25.55,25.55,0,0,1,66,89.39a5.07,5.07,0,0,1,1.25-2.51,5.66,5.66,0,0,1,2.49-1.45A15.29,15.29,0,0,1,74,85h1.07v4.83c-1.8,0-2.93.18-3.4.54a3,3,0,0,0-.73,2.35,30.84,30.84,0,0,1-.68,7.88,6.54,6.54,0,0,1-3.1,3.71,6.49,6.49,0,0,1,2.8,3c.66,1.33,1,4.19,1,8.59a2.27,2.27,0,0,0,1.44,2.7,9.35,9.35,0,0,0,2.69.21v4.83H74c-2.71,0-4.54-.33-5.51-1a6.35,6.35,0,0,1-2.11-2.29q-.66-1.31-.66-6.06a21.89,21.89,0,0,0-.34-4.57,3.74,3.74,0,0,0-1.28-2.19A4.93,4.93,0,0,0,61.3,106.68Z" transform="translate(-6.17 -0.01)"/><path class="a" d="M101,101.85v4.83a4.93,4.93,0,0,0-2.76.77A3.69,3.69,0,0,0,97,109.56a20.1,20.1,0,0,0-.36,4.64,25.75,25.75,0,0,1-.33,5,5.09,5.09,0,0,1-1.26,2.5,5.48,5.48,0,0,1-2.48,1.45,14.6,14.6,0,0,1-4.21.47H87.25v-4.83c1.8,0,2.93-.18,3.4-.54a3,3,0,0,0,.7-2.37A31.17,31.17,0,0,1,92,108a6.54,6.54,0,0,1,3.1-3.71,6.51,6.51,0,0,1-2.81-3q-.94-2-.95-8.59A2.29,2.29,0,0,0,89.93,90a9.35,9.35,0,0,0-2.69-.21V84.93h1.07c2.71,0,4.54.33,5.51,1a6.32,6.32,0,0,1,2.11,2.28q.66,1.32.66,6.06a21.89,21.89,0,0,0,.34,4.57A3.81,3.81,0,0,0,98.21,101,4.89,4.89,0,0,0,101,101.85Z" transform="translate(-6.17 -0.01)"/><path class="a" d="M78.32,94.66H84V100H78.32Zm0,8.55H84v4.4a6.32,6.32,0,0,1-1,3.81,8.09,8.09,0,0,1-3.42,2.46l-1.23-2.29a6,6,0,0,0,2.07-1.39,2.86,2.86,0,0,0,.63-1.65h-2.7Z" transform="translate(-6.17 -0.01)"/><path class="a" d="M226.66,63.3c5.06,0,7.62,3.91,7.62,7.84s-2.54,7.8-7.62,7.8H221.5v7.8h-3.41V63.3Zm0,12.29a4.44,4.44,0,0,0,0-8.88H221.5v8.9Z" transform="translate(-6.17 -0.01)"/><path class="a" d="M246.19,83.34h10.88v3.39H242.8V63.32h14.27V66.7H246.19v6.62h10.67v3.42H246.19Z" transform="translate(-6.17 -0.01)"/><path class="a" d="M274.31,63.32c7.68,0,11.53,5.87,11.53,11.73S282,86.73,274.31,86.73h-8.38V63.32Zm0,20c5.43,0,8.17-4.15,8.17-8.3s-2.74-8.35-8.17-8.35h-5V83.35Z" transform="translate(-6.17 -0.01)"/><path class="a" d="M296.22,74.85h5.34a4.08,4.08,0,0,0,.35-8.15h-5.54v20H293V63.3h8.55a7.24,7.24,0,0,1,7.62,7.46,7.05,7.05,0,0,1-6.1,7.17l7.4,8.81h-4.32l-8.54-8.8h-1.37Z" transform="translate(-6.17 -0.01)"/><path class="a" d="M319.25,66.55A11.85,11.85,0,0,1,336,66.39l.16.16a12,12,0,0,1,0,17,11.85,11.85,0,0,1-16.76.15l-.15-.15a12,12,0,0,1,0-17ZM333.73,69a8.68,8.68,0,0,0-6.1-2.55,8.43,8.43,0,0,0-6,2.55,8.56,8.56,0,0,0,0,12.12h0a8.38,8.38,0,0,0,6,2.54A8.63,8.63,0,0,0,333.73,69Z" transform="translate(-6.17 -0.01)"/><path class="a" d="M372,66.65a11.3,11.3,0,0,1,8.11-3.48A11,11,0,0,1,391,71.8h-3.35a7.62,7.62,0,0,0-7.56-5.29A8,8,0,0,0,374.35,69a8.65,8.65,0,0,0,0,12,8.06,8.06,0,0,0,13.53-3h3.32a11.31,11.31,0,0,1-11.09,8.94A11.19,11.19,0,0,1,372,83.43a12.16,12.16,0,0,1,0-16.77Z" transform="translate(-6.17 -0.01)"/><path class="a" d="M400.4,74.85h5.33a4.08,4.08,0,0,0,.36-8.15h-5.55v20h-3.35V63.3h8.56a7.24,7.24,0,0,1,7.62,7.46,7.06,7.06,0,0,1-6.1,7.17l7.4,8.81h-4.38l-8.55-8.8h-1.36Z" transform="translate(-6.17 -0.01)"/><path class="a" d="M423.37,79.58V63.2h3.41V79.61c0,2.58,2.78,3.86,5.26,3.86s5.22-1.31,5.22-3.89V63.2h3.43V79.61c0,4.75-4.63,7.24-8.65,7.24S423.37,84.37,423.37,79.58Z" transform="translate(-6.17 -0.01)"/><path class="a" d="M449.94,63.32H469.1l-15.4,20.4h13.06v3H447.07l15.41-20.32H449.94Z" transform="translate(-6.17 -0.01)"/><path class="a" d="M479.55,51.78V98.21H207.63V51.78H479.55m14.28-14.27H193.35v75H493.83Z" transform="translate(-6.17 -0.01)"/></svg>