<svg xmlns="http://www.w3.org/2000/svg" viewBox="0 0 543.77 654.65"><defs><style>.a{fill:#d8d8d8;}.b{fill:#1d1816;}.c{fill:none;stroke:#ffec95;stroke-miterlimit:10;stroke-width:2.23px;}.d{fill:#807765;}.e{fill:#6b6a67;}.f{fill:#644343;}.g{fill:#f0b091;}.h{fill:#2b2b27;}.i{fill:#2e2825;opacity:0.05;}.j{fill:#28171a;}.k{fill:#8a4b45;}.l{fill:#fff;}.m{fill:#ffbab1;}.n{fill:#ffd0bb;opacity:0.63;}.o{fill:#794d43;opacity:0.28;}.p{fill:#565656;opacity:0.2;}.q{opacity:0.75;}.r{fill:#2b2b2b;}.s{fill:#8e9092;}.t{fill:#8a8c8f;}</style></defs><title>me_vec_light</title><circle class="a" cx="271.89" cy="327.33" r="271.89"/><path class="b" d="M184.26,285.72s-23.4-136,32.14-187.46S341.71,39.33,417.57,54.91s81.28,61.64,81.28,61.64L239.43,223.81l-35.5,99.33Z" transform="translate(-103.11 -47.67)"/><path class="c" d="M364.3,103.07l-5.53-19.19s21.1-4.43,30-3.45,31.48,8.06,41.33,8.13,0,23.36,0,23.36Z" transform="translate(-103.11 -47.67)"/><polygon points="409.8 228.93 422.07 230.65 427.2 228.86 433.49 232.25 433.49 199.1 404.18 205.41 409.8 228.93"/><polygon class="d" points="427.11 200.48 434.51 198.85 436.23 219.71 430.7 231.86 430.69 213.43 427.11 200.48"/><path class="e" d="M525.19,278.33s-11.5-17.36,5-30.18a22.41,22.41,0,0,1,3.2,16.6C531.62,274.74,525.19,278.33,525.19,278.33Z" transform="translate(-103.11 -47.67)"/><path class="d" d="M525.19,278.33s6.22-2.59,8.62,1.21c0,0,5-2.8,0-18.43Z" transform="translate(-103.11 -47.67)"/><path class="f" d="M193.08,288.51s-8.92-81.24,39.6-143.72a126,126,0,0,1,53.21-39.85c19.46-7.71,46.08-15.51,73-14.81,52,1.36,163-11.51,208.4,19s.09,84.75-24.29,125.69S193.08,288.51,193.08,288.51Z" transform="translate(-103.11 -47.67)"/><path class="g" d="M218.87,393.26l17.78,134.83a142.92,142.92,0,0,1-1.59,47.76c-1.45,7-3.46,13.94-6.25,19.51-9.11,18.22,32.3,67.92,32.3,67.92s47.21,48.86,125.9,37.27c59.56-8.78,96.12-57.81,110.37-81.13a40,40,0,0,0,5.75-24.17c-2.52-30.22-7.47-111.46,6.46-163.89,17.4-65.43,9.94-129.21,9.94-129.21A411.52,411.52,0,0,1,503.79,216c-3.31-47.21-161.51-35.61-161.51-35.61S213.07,187,192.37,276.48c0,0-19.62-4.76-27.13,19.48a44.52,44.52,0,0,0-.33,24.52A457,457,0,0,1,175,370.07C179.94,404,211.42,416.45,218.87,393.26Z" transform="translate(-103.11 -47.67)"/><path class="h" d="M521.11,341.08s-11.08,73.44-30.58,87c0,0,1.66-79.51-58-86.14a228.45,228.45,0,0,0-85.59,6.4,46,46,0,0,0-27.26,20.86c-6.49,10.92-13.08,27-12.22,46.45,0,0-50.52-4.14-66.26-76.2s26-141.46,26-141.46-64.94,22.19-74.88,78.52c0,0,29.82,2.48,30.65,46.38s-4.14,70.4-4.14,70.4S239.57,621,354.69,622.69a275.62,275.62,0,0,0,56.41-4.87c21.76-4.19,57.14-13.07,75.17-26.05,53.07-38.19,51.45-89.13,45.79-144.13Zm-46.79,74c.42,5.4.81,10.43.84,15.84.09,17.86-8.13,60.58-75.06,51.6-84.32-11.32-72.44-96.78-72.44-96.78,2.27-41.32,42.4-25.93,90.85-21C458.48,368.72,472.62,393.35,474.32,415.06Z" transform="translate(-103.11 -47.67)"/><path class="i" d="M513.19,315.11s3.2,12.81-9.12,16.26c0,0-14.54-4.5-21.19,1.45,0,0-7.63,3.47,8.87,16.78s-10.63,49-10.63,49-3.66-38.93-14-50.26-12.32-3.45-20-20.45c0,0,2.46,11.82-17,18s-89.68,11-89.68,11-12.29-12.69-9.72-29.45c1-6.72,2-13.57,2.81-19.36.12-.84.34-2.47.34-2.47l15.22,3.16,27.57-11,16.62-25.5,11.22-37.43,32.91,6.38-5.7,12.53,15.63,41.82,31,22.43Z" transform="translate(-103.11 -47.67)"/><path class="j" d="M343.13,383.18a10.36,10.36,0,0,1,5.07-12.07c4.48-2.42,11.75-4.41,23-2.77,22.58,3.3,16,5.83,34.51,6.09a133,133,0,0,0,23.81-1.53,23,23,0,0,1,9.31.28c6.49,1.58,17.1,5.12,22.41,12.17A9.65,9.65,0,0,1,459,399.11c-5.83,4.05-17.86,7.92-42.39,4.5,0,0-37.55-9.39-55.82-7.61C349.39,397.1,344.9,389.25,343.13,383.18Z" transform="translate(-103.11 -47.67)"/><polygon class="k" points="239.44 323.12 249.89 349.65 334.15 360.05 342.56 318.71 262.44 315.12 239.44 323.12"/><path class="l" d="M351.22,391.1a2.64,2.64,0,0,1-1.25-1.71c-.37-1.67-.71-4.6,1.4-4.93,3-.47,7.4,5.14,7.4,5.14v-5.9a1.8,1.8,0,0,1,1.51-1.79c2.08-.31,5.7-.14,6.68,4.49,1.41,6.63-3.9-6.31,0-10.37s10.76,7.26,10.76,7.26.47-8.82,7.18-8.82,6.24,8.89,6.24,8.89.62-8.85,8.26-8.89,8.27,8,8.27,8,.47-7.1,8.89-6.94,6.55,12.78,6.55,12.78-2.18-12,5.46-11.22c0,0,3.74,0,4.05,7.48,0,0,.78-6.7,6.24-6.39s4.06,19.65,1.4,22-8.42-5-8.42-5a14.12,14.12,0,0,1-9-.63,28.65,28.65,0,0,1-15.44.47s-11.39-1.4-13.73-.47-1.4-.15-3.12-2.18a4.41,4.41,0,0,1-6.08.78,5.12,5.12,0,0,0-4.83-.31s-1.56.15-2-3c0,0,.78,5.46-4.84,5.31,0,0-3.12,1.56-6.55-2.5C366.18,392.72,362.49,397.6,351.22,391.1Z" transform="translate(-103.11 -47.67)"/><path class="l" d="M376.9,396.41s2.11-4.78,4.82-4,9.79-2.52,9.79-2.52,29.46,4.69,32.16,7.23c0,0,3.74-3.64,5.64,2.06,0,0,3.18-1.74,5,3,1.66,4.31-14.18,2-17.22,1.49-.32-.05-.61-.11-.93-.18C412.42,402.67,385.49,396.66,376.9,396.41Z" transform="translate(-103.11 -47.67)"/><path class="m" d="M468.69,377.87c-10.67-22.07-27.41-18.16-27.41-18.16s-11.67.67-27.68,1.34a43.65,43.65,0,0,1-19.44-3.94,61.71,61.71,0,0,0-37.45-4.37c-11.46,2.35-18.26,7.31-22.31,12.38-5.49,6.88-4.61,16.89,1.6,23.13,6.57,6.6,16.58,16,26.57,22.92,10.86,7.51,33.53,11,48.52,12.48a61.91,61.91,0,0,0,53.81-21.47q.64-.76,1.23-1.5A21.56,21.56,0,0,0,468.69,377.87ZM459,399.11c-5.83,4.05-17.86,7.92-42.39,4.5,0,0-37.55-9.39-55.82-7.61-11.38,1.1-15.87-6.75-17.64-12.82a10.36,10.36,0,0,1,5.07-12.07c4.48-2.42,11.75-4.41,23-2.77,22.58,3.3,16,5.83,34.51,6.09a133,133,0,0,0,23.81-1.53,23,23,0,0,1,9.31.28c6.49,1.58,17.1,5.12,22.41,12.17A9.65,9.65,0,0,1,459,399.11Z" transform="translate(-103.11 -47.67)"/><path class="n" d="M364.71,317.21s3.27,9.1,9.61,9a5.67,5.67,0,0,0,5.09-4c1-2.75,3.4-6.66,9.12-5.63,1.48.27,3,.56,4.46.69,4.52.42,14,2.22,14.3,10,.32,8.09,10.35,5.21,14.62,3.61a6,6,0,0,0,2.75-2.08c2.06-2.78,7.71-8.78,16.58-5.72,0,0,6.46.35,1.33,6.74a1.31,1.31,0,0,0,.73,2.12c3.18.6,9.32.34,13.1-8.86,5.27-12.85-8.26-24.89-8.26-24.89l-22.05-55.87-20.69-3.79-10.71,29s-8.8,19.49-18,25C363.38,300.66,361.86,310.66,364.71,317.21Z" transform="translate(-103.11 -47.67)"/><path class="o" d="M433.42,258.25s13.51-19.47,32.82-14.32,25.52,7.29,34.95,22.73c0,0-14.37,18.53-38,10.08S436.64,264.85,433.42,258.25Z" transform="translate(-103.11 -47.67)"/><path class="p" d="M430.54,260.28s39.82-19.85,70.65,6.38C501.19,266.66,465.86,253.13,430.54,260.28Z" transform="translate(-103.11 -47.67)"/><g class="q"><path class="r" d="M499.81,267.55a1.1,1.1,0,0,1-.47-.1c-35.18-16.34-68.14-6.21-68.47-6.11a1.11,1.11,0,0,1-.71-2.11c36.84-13.37,69.9,6,70.22,6.25a1.11,1.11,0,0,1-.57,2.07Z" transform="translate(-103.11 -47.67)"/></g><path class="o" d="M289.12,256.83c7.46-7.12,43.55-37.23,89.47-3.28a1.91,1.91,0,0,1,0,3.07c-5.16,3.71-20.2,12.76-44.44,13.05-24.74.3-39.9-7.4-44.74-10.32A1.59,1.59,0,0,1,289.12,256.83Z" transform="translate(-103.11 -47.67)"/><path class="p" d="M289.74,258.25s37.4-39.39,89.62-2.63C379.36,255.62,327.5,248.31,289.74,258.25Z" transform="translate(-103.11 -47.67)"/><g class="q"><path class="r" d="M289.74,259.36a1.11,1.11,0,0,1-.59-2.06c.33-.21,34.26-20.6,89.55-3.14a1.12,1.12,0,0,1-.64,2.14c-.48-.14-49-13.6-87.89,3A1.11,1.11,0,0,1,289.74,259.36Z" transform="translate(-103.11 -47.67)"/></g><path class="d" d="M204.46,281.41s-6.34-32.25,24.95-47.12,16.24,2.83,16.24,2.83l-22.14,21.41-4.72,2.56a12.82,12.82,0,0,0-10.85,5.53c-4,6-1.41,15.17-1.41,15.17Z" transform="translate(-103.11 -47.67)"/><path d="M461.11,313.68c9.37,7.35,42.52,10.8,59.47,2,21-11,24.88-55.07,25.25-57.63s2.19-1.1,5.48-1.47-2.44-26.29-2.44-26.29c-8.81-5.89-34.35-11.72-49-14.71a94.1,94.1,0,0,0-23.5-1.82c-10.26.5-24.4,1.95-33.73,6-16.12,6.95-37.15,0-37.15,0s-60.29-24.83-90.78-16.76-45.46,9.62-45.46,9.62-8.55,30-1.74,26.75,9.5,6.08,9.5,6.08c.91,12.26,9.33,44.1,15.55,52.15S337.24,321.32,368,306s40.07-57.82,40.07-57.82c10.24-9.52,17.75,1.28,17.75,1.28S434.42,292.78,461.11,313.68Zm-64.86-58.62s-4.54,21.5-20.33,36.67a50.54,50.54,0,0,1-31.39,13.6c-9.41.71-23,.33-36.3-5a26.56,26.56,0,0,1-14.31-13.69C290,277.93,286,262.75,288,238.39a25.66,25.66,0,0,1,7.79-16.6,36.24,36.24,0,0,1,15.12-8.31c18.34-5.22,43.85-.93,43.85-.93s31.5,6.26,38.27,18.12S396.25,255.06,396.25,255.06Zm132.43,41.26c-.35.89-.67,1.82-1,2.73-1.44,4.29-9.42,21-45.13,14.25-33.66-6.4-41.89-38.14-43.75-49.05-.38-2.26-.82-4.49-1.31-6.72a38.51,38.51,0,0,1-.39-14.7,20.58,20.58,0,0,1,9.32-14c6-3.72,16.68-7.77,35.27-8.35,35.47-1.11,43.47,9.81,43.47,9.81S546.85,249.73,528.68,296.32Z" transform="translate(-103.11 -47.67)"/><path d="M206.25,282.35s-6.09-19.49,11.61-22.09c3.28-.49,4.79-3.34,5-6.65a18.72,18.72,0,0,1,.68-5.69c6.43-20.13,44-34.44,44-34.44s1.09,20.17,0,25.82l-47.38,22.39a4.63,4.63,0,0,1-2.14.42c-3.38-.12-13.6,1-11.16,19.33C206.86,281.44,207.07,282.05,206.25,282.35Z" transform="translate(-103.11 -47.67)"/><polygon class="d" points="166.17 164.88 163.51 166.18 163.09 192.26 164.43 191.63 166.17 164.88"/><ellipse class="s" cx="160.8" cy="174.07" rx="1.02" ry="2.06"/><ellipse class="s" cx="160.55" cy="184.81" rx="1.02" ry="1.81"/><circle class="s" cx="175.37" cy="172.02" r="2.49"/><circle class="s" cx="174.86" cy="182.57" r="2.23"/><circle class="t" cx="443.65" cy="189.71" r="2.05"/><circle class="t" cx="443.65" cy="199.74" r="2.05"/></svg>