<?xml version="1.0" encoding="UTF-8"?>
<svg width="16px" height="12px" viewBox="0 0 16 12" version="1.1" xmlns="http://www.w3.org/2000/svg" xmlns:xlink="http://www.w3.org/1999/xlink">
    <!-- Generator: Sketch 57.1 (83088) - https://sketch.com -->
    <title>twitter</title>
    <desc>Created with Sketch.</desc>
    <g id="mobile" stroke="none" stroke-width="1" fill="none" fill-rule="evenodd">
        <g id="blog-list" transform="translate(-58.000000, -1007.000000)" fill="#22313F" fill-rule="nonzero">
            <g id="Footer" transform="translate(29.000000, 1007.000000)">
                <g id="social_media">
                    <path d="M44.3594371,1.41978882 C43.8157041,1.66072107 43.2322865,1.82411857 42.6192984,1.8970669 C43.2452009,1.52225926 43.7243135,0.927761763 43.95139,0.221548563 C43.364279,0.56864453 42.7162169,0.820680763 42.0256941,0.957308009 C41.47274,0.36742108 40.686216,0 39.8138293,0 C38.1401697,0 36.7831425,1.35702719 36.7831425,3.02976953 C36.7831425,3.2670085 36.8099128,3.49871962 36.8616187,3.72029232 C34.343284,3.5938035 32.110201,2.38725939 30.6156293,0.553871407 C30.3543719,1.00068595 30.2057476,1.52131783 30.2057476,2.07707209 C30.2057476,3.12854669 30.7411767,4.05630845 31.5535536,4.59910001 C31.0568919,4.58249232 30.5897763,4.44586507 30.180836,4.21876452 L30.180836,4.25661461 C30.180836,5.72441609 31.2258413,6.9494266 32.6114734,7.22823308 C32.3576026,7.2965467 32.0899,7.33439679 31.8129523,7.33439679 C31.6172567,7.33439679 31.4280062,7.31501311 31.242449,7.2780803 C31.6283124,8.48278984 32.7471833,9.35884567 34.0728297,9.38286406 C33.0361282,10.195241 31.7289482,10.6780469 30.3091594,10.6780469 C30.0645339,10.6780469 29.8235775,10.6632738 29.5863385,10.6365035 C30.9276753,11.4978104 32.5201069,12 34.2316166,12 C39.806491,12 42.8538097,7.38240944 42.8538097,3.37780692 L42.8436471,2.9854743 C43.4390619,2.5607953 43.9541659,2.02722487 44.3594371,1.41978882 Z" id="twitter"></path>
                </g>
            </g>
        </g>
    </g>
</svg>