<?xml version="1.0" encoding="UTF-8"?>
<svg width="18px" height="12px" viewBox="0 0 18 12" version="1.1" xmlns="http://www.w3.org/2000/svg" xmlns:xlink="http://www.w3.org/1999/xlink">
    <!-- Generator: Sketch 57.1 (83088) - https://sketch.com -->
    <title>youtube_light</title>
    <desc>Created with Sketch.</desc>
    <g id="mobile" stroke="none" stroke-width="1" fill="none" fill-rule="evenodd">
        <g id="work" transform="translate(-150.000000, -850.000000)" fill="#F1F4FA" fill-rule="nonzero">
            <g id="Footer" transform="translate(29.000000, 850.000000)">
                <g id="social_media">
                    <g id="youtube_light" transform="translate(121.118453, 0.000000)">
                        <path d="M13.4039266,0.0144220183 L3.51354128,0.0144220183 C1.57306422,0.0144220183 0,1.58748624 0,3.5279633 L0,8.47211009 C0,10.4125872 1.57306422,11.9856514 3.51354128,11.9856514 L13.4039266,11.9856514 C15.3444037,11.9856514 16.9174679,10.4125872 16.9174679,8.47211009 L16.9174679,3.5279633 C16.9174679,1.58748624 15.3444037,0.0144220183 13.4039266,0.0144220183 Z M11.0277431,6.24058716 L6.40168807,8.44693578 C6.27842202,8.50572477 6.1360367,8.41585321 6.1360367,8.27930275 L6.1360367,3.72869725 C6.1360367,3.59020183 6.28216514,3.50044037 6.40568807,3.56304587 L11.0317431,5.90730275 C11.1692844,5.97699083 11.1668991,6.17423853 11.0277431,6.24058716 Z" id="youtube"></path>
                    </g>
                </g>
            </g>
        </g>
    </g>
</svg>